<?xml version="1.0" encoding="UTF-8" standalone="no"?><svg xmlns="http://www.w3.org/2000/svg" xmlns:xlink="http://www.w3.org/1999/xlink" contentScriptType="application/ecmascript" contentStyleType="text/css" height="426px" preserveAspectRatio="none" style="width:313px;height:426px;" version="1.1" viewBox="0 0 313 426" width="313px" zoomAndPan="magnify"><defs><filter height="300%" id="flchapm" width="300%" x="-1" y="-1"><feGaussianBlur result="blurOut" stdDeviation="2.0"/><feColorMatrix in="blurOut" result="blurOut2" type="matrix" values="0 0 0 0 0 0 0 0 0 0 0 0 0 0 0 0 0 0 .4 0"/><feOffset dx="4.0" dy="4.0" in="blurOut2" result="blurOut3"/><feBlend in="SourceGraphic" in2="blurOut3" mode="normal"/></filter></defs><g><!--cluster COMP_USER--><rect fill="#FFFFFF" filter="url(#flchapm)" height="194" style="stroke: #000000; stroke-width: 2.0;" width="281" x="25" y="225"/><text fill="#000000" font-family="sans-serif" font-size="14" font-weight="bold" lengthAdjust="spacingAndGlyphs" textLength="93" x="119" y="239.9951">COMP_USER</text><!--cluster COMP_ORDER--><rect fill="#FFFFFF" filter="url(#flchapm)" height="168" style="stroke: #000000; stroke-width: 2.0;" width="282" x="22" y="24"/><text fill="#000000" font-family="sans-serif" font-size="14" font-weight="bold" lengthAdjust="spacingAndGlyphs" textLength="105" x="110.5" y="38.9951">COMP_ORDER</text><!--class User--><rect fill="#FEFECE" filter="url(#flchapm)" height="137.6328" style="stroke: #A80036; stroke-width: 1.5;" width="64" x="49" y="264"/><ellipse cx="65.35" cy="280" fill="#ADD1B2" rx="11" ry="11" style="stroke: #A80036; stroke-width: 1.0;"/><path d="M68.3188,285.6406 Q67.7406,285.9375 67.1,286.0781 Q66.4594,286.2344 65.7563,286.2344 Q63.2562,286.2344 61.9281,284.5938 Q60.6156,282.9375 60.6156,279.8125 Q60.6156,276.6875 61.9281,275.0313 Q63.2562,273.375 65.7563,273.375 Q66.4594,273.375 67.1,273.5313 Q67.7563,273.6875 68.3188,273.9844 L68.3188,276.7031 Q67.6938,276.125 67.1,275.8594 Q66.5063,275.5781 65.8813,275.5781 Q64.5375,275.5781 63.85,276.6563 Q63.1625,277.7188 63.1625,279.8125 Q63.1625,281.9063 63.85,282.9844 Q64.5375,284.0469 65.8813,284.0469 Q66.5063,284.0469 67.1,283.7813 Q67.6938,283.5 68.3188,282.9219 L68.3188,285.6406 Z "/><text fill="#000000" font-family="sans-serif" font-size="12" lengthAdjust="spacingAndGlyphs" textLength="29" x="79.65" y="284.1543">User</text><line style="stroke: #A80036; stroke-width: 1.5;" x1="50" x2="112" y1="296" y2="296"/><text fill="#000000" font-family="sans-serif" font-size="11" lengthAdjust="spacingAndGlyphs" textLength="28" x="55" y="310.2104">int id</text><text fill="#000000" font-family="sans-serif" font-size="11" lengthAdjust="spacingAndGlyphs" textLength="52" x="55" y="323.0151">str name</text><text fill="#000000" font-family="sans-serif" font-size="11" lengthAdjust="spacingAndGlyphs" textLength="51" x="55" y="335.8198">str email</text><text fill="#000000" font-family="sans-serif" font-size="11" lengthAdjust="spacingAndGlyphs" textLength="47" x="55" y="348.6245">address</text><text fill="#000000" font-family="sans-serif" font-size="11" lengthAdjust="spacingAndGlyphs" textLength="39" x="55" y="361.4292">int age</text><line style="stroke: #A80036; stroke-width: 1.5;" x1="50" x2="112" y1="368.0234" y2="368.0234"/><text fill="#000000" font-family="sans-serif" font-size="11" lengthAdjust="spacingAndGlyphs" textLength="52" x="55" y="382.2339">activate()</text><text fill="#000000" font-family="sans-serif" font-size="11" lengthAdjust="spacingAndGlyphs" textLength="39" x="55" y="395.0386">notify()</text><!--class Address--><rect fill="#FEFECE" filter="url(#flchapm)" height="99.2188" style="stroke: #A80036; stroke-width: 1.5;" width="83" x="198.5" y="282.5"/><ellipse cx="213.5" cy="298.5" fill="#ADD1B2" rx="11" ry="11" style="stroke: #A80036; stroke-width: 1.0;"/><path d="M216.4688,304.1406 Q215.8906,304.4375 215.25,304.5781 Q214.6094,304.7344 213.9063,304.7344 Q211.4063,304.7344 210.0781,303.0938 Q208.7656,301.4375 208.7656,298.3125 Q208.7656,295.1875 210.0781,293.5313 Q211.4063,291.875 213.9063,291.875 Q214.6094,291.875 215.25,292.0313 Q215.9063,292.1875 216.4688,292.4844 L216.4688,295.2031 Q215.8438,294.625 215.25,294.3594 Q214.6563,294.0781 214.0313,294.0781 Q212.6875,294.0781 212,295.1563 Q211.3125,296.2188 211.3125,298.3125 Q211.3125,300.4063 212,301.4844 Q212.6875,302.5469 214.0313,302.5469 Q214.6563,302.5469 215.25,302.2813 Q215.8438,302 216.4688,301.4219 L216.4688,304.1406 Z "/><text fill="#000000" font-family="sans-serif" font-size="12" lengthAdjust="spacingAndGlyphs" textLength="51" x="227.5" y="302.6543">Address</text><line style="stroke: #A80036; stroke-width: 1.5;" x1="199.5" x2="280.5" y1="314.5" y2="314.5"/><text fill="#000000" font-family="sans-serif" font-size="11" lengthAdjust="spacingAndGlyphs" textLength="28" x="204.5" y="328.7104">int id</text><text fill="#000000" font-family="sans-serif" font-size="11" lengthAdjust="spacingAndGlyphs" textLength="54" x="204.5" y="341.5151">str street</text><text fill="#000000" font-family="sans-serif" font-size="11" lengthAdjust="spacingAndGlyphs" textLength="39" x="204.5" y="354.3198">str city</text><text fill="#000000" font-family="sans-serif" font-size="11" lengthAdjust="spacingAndGlyphs" textLength="62" x="204.5" y="367.1245">str country</text><line style="stroke: #A80036; stroke-width: 1.5;" x1="199.5" x2="280.5" y1="373.7188" y2="373.7188"/><!--class Order--><rect fill="#FEFECE" filter="url(#flchapm)" height="112.0234" style="stroke: #A80036; stroke-width: 1.5;" width="67" x="46.5" y="63"/><ellipse cx="61.5" cy="79" fill="#ADD1B2" rx="11" ry="11" style="stroke: #A80036; stroke-width: 1.0;"/><path d="M64.4688,84.6406 Q63.8906,84.9375 63.25,85.0781 Q62.6094,85.2344 61.9063,85.2344 Q59.4063,85.2344 58.0781,83.5938 Q56.7656,81.9375 56.7656,78.8125 Q56.7656,75.6875 58.0781,74.0313 Q59.4063,72.375 61.9063,72.375 Q62.6094,72.375 63.25,72.5313 Q63.9063,72.6875 64.4688,72.9844 L64.4688,75.7031 Q63.8438,75.125 63.25,74.8594 Q62.6563,74.5781 62.0313,74.5781 Q60.6875,74.5781 60,75.6563 Q59.3125,76.7188 59.3125,78.8125 Q59.3125,80.9063 60,81.9844 Q60.6875,83.0469 62.0313,83.0469 Q62.6563,83.0469 63.25,82.7813 Q63.8438,82.5 64.4688,81.9219 L64.4688,84.6406 Z "/><text fill="#000000" font-family="sans-serif" font-size="12" lengthAdjust="spacingAndGlyphs" textLength="35" x="75.5" y="83.1543">Order</text><line style="stroke: #A80036; stroke-width: 1.5;" x1="47.5" x2="112.5" y1="95" y2="95"/><text fill="#000000" font-family="sans-serif" font-size="11" lengthAdjust="spacingAndGlyphs" textLength="28" x="52.5" y="109.2104">int id</text><text fill="#000000" font-family="sans-serif" font-size="11" lengthAdjust="spacingAndGlyphs" textLength="50" x="52.5" y="122.0151">products</text><text fill="#000000" font-family="sans-serif" font-size="11" lengthAdjust="spacingAndGlyphs" textLength="26" x="52.5" y="134.8198">user</text><line style="stroke: #A80036; stroke-width: 1.5;" x1="47.5" x2="112.5" y1="141.4141" y2="141.4141"/><text fill="#000000" font-family="sans-serif" font-size="11" lengthAdjust="spacingAndGlyphs" textLength="43" x="52.5" y="155.6245">delete()</text><text fill="#000000" font-family="sans-serif" font-size="11" lengthAdjust="spacingAndGlyphs" textLength="45" x="52.5" y="168.4292">accept()</text><!--class Product--><rect fill="#FEFECE" filter="url(#flchapm)" height="86.4141" style="stroke: #A80036; stroke-width: 1.5;" width="81" x="199.5" y="75"/><ellipse cx="214.5" cy="91" fill="#ADD1B2" rx="11" ry="11" style="stroke: #A80036; stroke-width: 1.0;"/><path d="M217.4688,96.6406 Q216.8906,96.9375 216.25,97.0781 Q215.6094,97.2344 214.9063,97.2344 Q212.4063,97.2344 211.0781,95.5938 Q209.7656,93.9375 209.7656,90.8125 Q209.7656,87.6875 211.0781,86.0313 Q212.4063,84.375 214.9063,84.375 Q215.6094,84.375 216.25,84.5313 Q216.9063,84.6875 217.4688,84.9844 L217.4688,87.7031 Q216.8438,87.125 216.25,86.8594 Q215.6563,86.5781 215.0313,86.5781 Q213.6875,86.5781 213,87.6563 Q212.3125,88.7188 212.3125,90.8125 Q212.3125,92.9063 213,93.9844 Q213.6875,95.0469 215.0313,95.0469 Q215.6563,95.0469 216.25,94.7813 Q216.8438,94.5 217.4688,93.9219 L217.4688,96.6406 Z "/><text fill="#000000" font-family="sans-serif" font-size="12" lengthAdjust="spacingAndGlyphs" textLength="49" x="228.5" y="95.1543">Product</text><line style="stroke: #A80036; stroke-width: 1.5;" x1="200.5" x2="279.5" y1="107" y2="107"/><text fill="#000000" font-family="sans-serif" font-size="11" lengthAdjust="spacingAndGlyphs" textLength="28" x="205.5" y="121.2104">int id</text><text fill="#000000" font-family="sans-serif" font-size="11" lengthAdjust="spacingAndGlyphs" textLength="52" x="205.5" y="134.0151">str name</text><text fill="#000000" font-family="sans-serif" font-size="11" lengthAdjust="spacingAndGlyphs" textLength="57" x="205.5" y="146.8198">float price</text><line style="stroke: #A80036; stroke-width: 1.5;" x1="200.5" x2="279.5" y1="153.4141" y2="153.4141"/><path d="M114,343.5 C150.48,343.5 158.96,326.24 192.81,324.62 " fill="none" style="stroke: #A80036; stroke-width: 1.0;"/><polygon fill="#A80036" points="198,324.5,188.9109,320.7067,193.0013,324.6143,189.0938,328.7046,198,324.5" style="stroke: #A80036; stroke-width: 1.0;"/><path d="M115,117.5 C131.16,117.5 130.45,102.89 146,98.5 C155.41,95.85 158.59,95.85 168,98.5 C181.73,102.37 182.78,114.22 193.96,116.94 " fill="none" style="stroke: #A80036; stroke-width: 1.0;"/><polygon fill="#A80036" points="199,117.5,190.4889,112.544,194.0297,116.9557,189.618,120.4965,199,117.5" style="stroke: #A80036; stroke-width: 1.0;"/><text fill="#000000" font-family="sans-serif" font-size="13" lengthAdjust="spacingAndGlyphs" textLength="20" x="147" y="93.5669">n:n</text><path d="M115,129.5 C152.49,129.5 153.34,290.3 119.28,305.37 " fill="none" style="stroke: #A80036; stroke-width: 1.0;"/><polygon fill="#A80036" points="114,306.5,123.6424,308.5062,118.8869,305.4426,121.9505,300.6871,114,306.5" style="stroke: #A80036; stroke-width: 1.0;"/><!--
@startuml
    allow_mixing

    '' code from COMP_USER

    package COMP_USER <<Rectangle>> {

        class User {
          int id
          str name
          str email
          address
          int age
          activate()
          notify()
        }

        class Address {
          int id
          str street
          str city
          str country
        }

        User::address -> Address::id
    }

    '' code from COMP_ORDER

    package COMP_ORDER <<Rectangle>> {
        class Order {
          int id
          products
          user
          delete()
          accept()
        }

        class Product {
          int id
          str name
          float price
        }

        Order::product -> Product::id : n:n
    }

    '' code from need_arch
    Order::user - -> User::id

   @enduml

PlantUML version 2017.10(Thu Apr 06 18:43:00 UTC 2017)
(GPL source distribution)
Java Runtime: OpenJDK Runtime Environment
JVM: OpenJDK 64-Bit Server VM
Java Version: 11.0.15+10
Operating System: Linux
OS Version: 5.13.0-1022-azure
Default Encoding: UTF-8
Language: en
Country: null
--></g></svg>