<?xml version="1.0" encoding="UTF-8" standalone="no"?><svg xmlns="http://www.w3.org/2000/svg" xmlns:xlink="http://www.w3.org/1999/xlink" contentScriptType="application/ecmascript" contentStyleType="text/css" height="336px" preserveAspectRatio="none" style="width:258px;height:336px;" version="1.1" viewBox="0 0 258 336" width="258px" zoomAndPan="magnify"><defs><filter height="300%" id="fmesevn" width="300%" x="-1" y="-1"><feGaussianBlur result="blurOut" stdDeviation="2.0"/><feColorMatrix in="blurOut" result="blurOut2" type="matrix" values="0 0 0 0 0 0 0 0 0 0 0 0 0 0 0 0 0 0 .4 0"/><feOffset dx="4.0" dy="4.0" in="blurOut2" result="blurOut3"/><feBlend in="SourceGraphic" in2="blurOut3" mode="normal"/></filter></defs><g><!--class User--><rect fill="#FEFECE" filter="url(#fmesevn)" height="137.6328" style="stroke: #A80036; stroke-width: 1.5;" width="64" x="16.5" y="190"/><ellipse cx="32.85" cy="206" fill="#ADD1B2" rx="11" ry="11" style="stroke: #A80036; stroke-width: 1.0;"/><path d="M35.8188,211.6406 Q35.2406,211.9375 34.6,212.0781 Q33.9594,212.2344 33.2563,212.2344 Q30.7563,212.2344 29.4281,210.5938 Q28.1156,208.9375 28.1156,205.8125 Q28.1156,202.6875 29.4281,201.0313 Q30.7563,199.375 33.2563,199.375 Q33.9594,199.375 34.6,199.5313 Q35.2563,199.6875 35.8188,199.9844 L35.8188,202.7031 Q35.1938,202.125 34.6,201.8594 Q34.0063,201.5781 33.3813,201.5781 Q32.0375,201.5781 31.35,202.6563 Q30.6625,203.7188 30.6625,205.8125 Q30.6625,207.9063 31.35,208.9844 Q32.0375,210.0469 33.3813,210.0469 Q34.0063,210.0469 34.6,209.7813 Q35.1938,209.5 35.8188,208.9219 L35.8188,211.6406 Z "/><text fill="#000000" font-family="sans-serif" font-size="12" lengthAdjust="spacingAndGlyphs" textLength="29" x="47.15" y="210.1543">User</text><line style="stroke: #A80036; stroke-width: 1.5;" x1="17.5" x2="79.5" y1="222" y2="222"/><text fill="#000000" font-family="sans-serif" font-size="11" lengthAdjust="spacingAndGlyphs" textLength="28" x="22.5" y="236.2104">int id</text><text fill="#000000" font-family="sans-serif" font-size="11" lengthAdjust="spacingAndGlyphs" textLength="52" x="22.5" y="249.0151">str name</text><text fill="#000000" font-family="sans-serif" font-size="11" lengthAdjust="spacingAndGlyphs" textLength="51" x="22.5" y="261.8198">str email</text><text fill="#000000" font-family="sans-serif" font-size="11" lengthAdjust="spacingAndGlyphs" textLength="47" x="22.5" y="274.6245">address</text><text fill="#000000" font-family="sans-serif" font-size="11" lengthAdjust="spacingAndGlyphs" textLength="39" x="22.5" y="287.4292">int age</text><line style="stroke: #A80036; stroke-width: 1.5;" x1="17.5" x2="79.5" y1="294.0234" y2="294.0234"/><text fill="#000000" font-family="sans-serif" font-size="11" lengthAdjust="spacingAndGlyphs" textLength="52" x="22.5" y="308.2339">activate()</text><text fill="#000000" font-family="sans-serif" font-size="11" lengthAdjust="spacingAndGlyphs" textLength="39" x="22.5" y="321.0386">notify()</text><!--class Address--><rect fill="#FEFECE" filter="url(#fmesevn)" height="99.2188" style="stroke: #A80036; stroke-width: 1.5;" width="83" x="166" y="208.5"/><ellipse cx="181" cy="224.5" fill="#ADD1B2" rx="11" ry="11" style="stroke: #A80036; stroke-width: 1.0;"/><path d="M183.9688,230.1406 Q183.3906,230.4375 182.75,230.5781 Q182.1094,230.7344 181.4063,230.7344 Q178.9063,230.7344 177.5781,229.0938 Q176.2656,227.4375 176.2656,224.3125 Q176.2656,221.1875 177.5781,219.5313 Q178.9063,217.875 181.4063,217.875 Q182.1094,217.875 182.75,218.0313 Q183.4063,218.1875 183.9688,218.4844 L183.9688,221.2031 Q183.3438,220.625 182.75,220.3594 Q182.1563,220.0781 181.5313,220.0781 Q180.1875,220.0781 179.5,221.1563 Q178.8125,222.2188 178.8125,224.3125 Q178.8125,226.4063 179.5,227.4844 Q180.1875,228.5469 181.5313,228.5469 Q182.1563,228.5469 182.75,228.2813 Q183.3438,228 183.9688,227.4219 L183.9688,230.1406 Z "/><text fill="#000000" font-family="sans-serif" font-size="12" lengthAdjust="spacingAndGlyphs" textLength="51" x="195" y="228.6543">Address</text><line style="stroke: #A80036; stroke-width: 1.5;" x1="167" x2="248" y1="240.5" y2="240.5"/><text fill="#000000" font-family="sans-serif" font-size="11" lengthAdjust="spacingAndGlyphs" textLength="28" x="172" y="254.7104">int id</text><text fill="#000000" font-family="sans-serif" font-size="11" lengthAdjust="spacingAndGlyphs" textLength="54" x="172" y="267.5151">str street</text><text fill="#000000" font-family="sans-serif" font-size="11" lengthAdjust="spacingAndGlyphs" textLength="39" x="172" y="280.3198">str city</text><text fill="#000000" font-family="sans-serif" font-size="11" lengthAdjust="spacingAndGlyphs" textLength="62" x="172" y="293.1245">str country</text><line style="stroke: #A80036; stroke-width: 1.5;" x1="167" x2="248" y1="299.7188" y2="299.7188"/><!--class Order--><rect fill="#FEFECE" filter="url(#fmesevn)" height="112.0234" style="stroke: #A80036; stroke-width: 1.5;" width="67" x="14" y="12"/><ellipse cx="29" cy="28" fill="#ADD1B2" rx="11" ry="11" style="stroke: #A80036; stroke-width: 1.0;"/><path d="M31.9688,33.6406 Q31.3906,33.9375 30.75,34.0781 Q30.1094,34.2344 29.4063,34.2344 Q26.9063,34.2344 25.5781,32.5938 Q24.2656,30.9375 24.2656,27.8125 Q24.2656,24.6875 25.5781,23.0313 Q26.9063,21.375 29.4063,21.375 Q30.1094,21.375 30.75,21.5313 Q31.4063,21.6875 31.9688,21.9844 L31.9688,24.7031 Q31.3438,24.125 30.75,23.8594 Q30.1563,23.5781 29.5313,23.5781 Q28.1875,23.5781 27.5,24.6563 Q26.8125,25.7188 26.8125,27.8125 Q26.8125,29.9063 27.5,30.9844 Q28.1875,32.0469 29.5313,32.0469 Q30.1563,32.0469 30.75,31.7813 Q31.3438,31.5 31.9688,30.9219 L31.9688,33.6406 Z "/><text fill="#000000" font-family="sans-serif" font-size="12" lengthAdjust="spacingAndGlyphs" textLength="35" x="43" y="32.1543">Order</text><line style="stroke: #A80036; stroke-width: 1.5;" x1="15" x2="80" y1="44" y2="44"/><text fill="#000000" font-family="sans-serif" font-size="11" lengthAdjust="spacingAndGlyphs" textLength="28" x="20" y="58.2104">int id</text><text fill="#000000" font-family="sans-serif" font-size="11" lengthAdjust="spacingAndGlyphs" textLength="50" x="20" y="71.0151">products</text><text fill="#000000" font-family="sans-serif" font-size="11" lengthAdjust="spacingAndGlyphs" textLength="26" x="20" y="83.8198">user</text><line style="stroke: #A80036; stroke-width: 1.5;" x1="15" x2="80" y1="90.4141" y2="90.4141"/><text fill="#000000" font-family="sans-serif" font-size="11" lengthAdjust="spacingAndGlyphs" textLength="43" x="20" y="104.6245">delete()</text><text fill="#000000" font-family="sans-serif" font-size="11" lengthAdjust="spacingAndGlyphs" textLength="45" x="20" y="117.4292">accept()</text><!--class Product--><rect fill="#FEFECE" filter="url(#fmesevn)" height="86.4141" style="stroke: #A80036; stroke-width: 1.5;" width="81" x="167" y="24"/><ellipse cx="182" cy="40" fill="#ADD1B2" rx="11" ry="11" style="stroke: #A80036; stroke-width: 1.0;"/><path d="M184.9688,45.6406 Q184.3906,45.9375 183.75,46.0781 Q183.1094,46.2344 182.4063,46.2344 Q179.9063,46.2344 178.5781,44.5938 Q177.2656,42.9375 177.2656,39.8125 Q177.2656,36.6875 178.5781,35.0313 Q179.9063,33.375 182.4063,33.375 Q183.1094,33.375 183.75,33.5313 Q184.4063,33.6875 184.9688,33.9844 L184.9688,36.7031 Q184.3438,36.125 183.75,35.8594 Q183.1563,35.5781 182.5313,35.5781 Q181.1875,35.5781 180.5,36.6563 Q179.8125,37.7188 179.8125,39.8125 Q179.8125,41.9063 180.5,42.9844 Q181.1875,44.0469 182.5313,44.0469 Q183.1563,44.0469 183.75,43.7813 Q184.3438,43.5 184.9688,42.9219 L184.9688,45.6406 Z "/><text fill="#000000" font-family="sans-serif" font-size="12" lengthAdjust="spacingAndGlyphs" textLength="49" x="196" y="44.1543">Product</text><line style="stroke: #A80036; stroke-width: 1.5;" x1="168" x2="247" y1="56" y2="56"/><text fill="#000000" font-family="sans-serif" font-size="11" lengthAdjust="spacingAndGlyphs" textLength="28" x="173" y="70.2104">int id</text><text fill="#000000" font-family="sans-serif" font-size="11" lengthAdjust="spacingAndGlyphs" textLength="52" x="173" y="83.0151">str name</text><text fill="#000000" font-family="sans-serif" font-size="11" lengthAdjust="spacingAndGlyphs" textLength="57" x="173" y="95.8198">float price</text><line style="stroke: #A80036; stroke-width: 1.5;" x1="168" x2="247" y1="102.4141" y2="102.4141"/><path d="M81.5,269.5 C117.98,269.5 126.46,252.24 160.31,250.62 " fill="none" style="stroke: #A80036; stroke-width: 1.0;"/><polygon fill="#A80036" points="165.5,250.5,156.4109,246.7067,160.5013,250.6143,156.5938,254.7046,165.5,250.5" style="stroke: #A80036; stroke-width: 1.0;"/><path d="M82.5,66.5 C98.66,66.5 97.95,51.89 113.5,47.5 C122.91,44.85 126.09,44.85 135.5,47.5 C149.23,51.37 150.28,63.22 161.46,65.94 " fill="none" style="stroke: #A80036; stroke-width: 1.0;"/><polygon fill="#A80036" points="166.5,66.5,157.9889,61.544,161.5297,65.9557,157.118,69.4965,166.5,66.5" style="stroke: #A80036; stroke-width: 1.0;"/><text fill="#000000" font-family="sans-serif" font-size="13" lengthAdjust="spacingAndGlyphs" textLength="20" x="114.5" y="42.5669">n:n</text><path d="M82.5,78.5 C149.21,78.5 149.95,224.78 86.58,232.21 " fill="none" style="stroke: #A80036; stroke-width: 1.0;"/><polygon fill="#A80036" points="81.5,232.5,90.7141,235.9785,86.4918,232.2139,90.2564,227.9916,81.5,232.5" style="stroke: #A80036; stroke-width: 1.0;"/><!--
@startuml

    '' code from COMP_USER
    class User {
      int id
      str name
      str email
      address
      int age
      activate()
      notify()
    }

    class Address {
      int id
      str street
      str city
      str country
    }

    User::address -> Address::id

    '' code from COMP_ORDER
    class Order {
      int id
      products
      user
      delete()
      accept()
    }

    class Product {
      int id
      str name
      float price
    }

    Order::product -> Product::id : n:n

    '' code from need_arch
    Order::user - -> User::id
   @enduml

PlantUML version 2017.10(Thu Apr 06 18:43:00 UTC 2017)
(GPL source distribution)
Java Runtime: OpenJDK Runtime Environment
JVM: OpenJDK 64-Bit Server VM
Java Version: 11.0.15+10
Operating System: Linux
OS Version: 5.13.0-1022-azure
Default Encoding: UTF-8
Language: en
Country: null
--></g></svg>