<?xml version="1.0" encoding="UTF-8" standalone="no"?><svg xmlns="http://www.w3.org/2000/svg" xmlns:xlink="http://www.w3.org/1999/xlink" contentScriptType="application/ecmascript" contentStyleType="text/css" height="216px" preserveAspectRatio="none" style="width:992px;height:216px;" version="1.1" viewBox="0 0 992 216" width="992px" zoomAndPan="magnify"><defs><filter height="300%" id="f4sj3bf" width="300%" x="-1" y="-1"><feGaussianBlur result="blurOut" stdDeviation="2.0"/><feColorMatrix in="blurOut" result="blurOut2" type="matrix" values="0 0 0 0 0 0 0 0 0 0 0 0 0 0 0 0 0 0 .4 0"/><feOffset dx="4.0" dy="4.0" in="blurOut2" result="blurOut3"/><feBlend in="SourceGraphic" in2="blurOut3" mode="normal"/></filter></defs><g><!--entity STORY_001--><a target="_top" xlink:actuate="onRequest" xlink:href="../index.html#STORY_001" xlink:show="new" xlink:title="../index.html#STORY_001" xlink:type="simple"><polygon fill="#BFD8D2" filter="url(#f4sj3bf)" points="13.5,18,23.5,8,118.5,8,118.5,69.9063,108.5,79.9063,13.5,79.9063,13.5,18" style="stroke: #000000; stroke-width: 1.5;"/><line style="stroke: #000000; stroke-width: 1.5;" x1="108.5" x2="117.5" y1="18" y2="9"/><line style="stroke: #000000; stroke-width: 1.5;" x1="13.5" x2="108.5" y1="18" y2="18"/><line style="stroke: #000000; stroke-width: 1.5;" x1="108.5" x2="108.5" y1="18" y2="79.9063"/><text fill="#000000" font-family="sans-serif" font-size="12" lengthAdjust="spacingAndGlyphs" textLength="65" x="28.5" y="39.1387">User Story</text><text fill="#000000" font-family="sans-serif" font-size="14" font-weight="bold" lengthAdjust="spacingAndGlyphs" textLength="65" x="28.5" y="54.9639">Example</text><text fill="#000000" font-family="sans-serif" font-size="10" lengthAdjust="spacingAndGlyphs" textLength="57" x="28.5" y="67.5479">STORY_001</text></a><!--entity SPEC_001--><a target="_top" xlink:actuate="onRequest" xlink:href="../index.html#SPEC_001" xlink:show="new" xlink:title="../index.html#SPEC_001" xlink:type="simple"><polygon fill="#FEDCD2" filter="url(#f4sj3bf)" points="6,150,16,140,126,140,126,201.9063,116,211.9063,6,211.9063,6,150" style="stroke: #000000; stroke-width: 1.5;"/><line style="stroke: #000000; stroke-width: 1.5;" x1="116" x2="125" y1="150" y2="141"/><line style="stroke: #000000; stroke-width: 1.5;" x1="6" x2="116" y1="150" y2="150"/><line style="stroke: #000000; stroke-width: 1.5;" x1="116" x2="116" y1="150" y2="211.9063"/><text fill="#000000" font-family="sans-serif" font-size="12" lengthAdjust="spacingAndGlyphs" textLength="80" x="21" y="171.1387">Specification</text><text fill="#000000" font-family="sans-serif" font-size="14" font-weight="bold" lengthAdjust="spacingAndGlyphs" textLength="65" x="21" y="186.9639">Example</text><text fill="#000000" font-family="sans-serif" font-size="10" lengthAdjust="spacingAndGlyphs" textLength="52" x="21" y="199.5479">SPEC_001</text></a><!--entity SYS_001--><a target="_top" xlink:actuate="onRequest" xlink:href="../index.html#SYS_001" xlink:show="new" xlink:title="../index.html#SYS_001" xlink:type="simple"><polygon fill="#DCB239" filter="url(#f4sj3bf)" points="164,18,174,8,330,8,330,69.9063,320,79.9063,164,79.9063,164,18" style="stroke: #000000; stroke-width: 1.5;"/><line style="stroke: #000000; stroke-width: 1.5;" x1="320" x2="329" y1="18" y2="9"/><line style="stroke: #000000; stroke-width: 1.5;" x1="164" x2="320" y1="18" y2="18"/><line style="stroke: #000000; stroke-width: 1.5;" x1="320" x2="320" y1="18" y2="79.9063"/><text fill="#000000" font-family="sans-serif" font-size="12" lengthAdjust="spacingAndGlyphs" textLength="126" x="179" y="39.1387">System Architecture</text><text fill="#000000" font-family="sans-serif" font-size="14" font-weight="bold" lengthAdjust="spacingAndGlyphs" textLength="73" x="179" y="54.9639">System X</text><text fill="#000000" font-family="sans-serif" font-size="10" lengthAdjust="spacingAndGlyphs" textLength="44" x="179" y="67.5479">SYS_001</text></a><!--entity COMP_001--><a target="_top" xlink:actuate="onRequest" xlink:href="../index.html#COMP_001" xlink:show="new" xlink:title="../index.html#COMP_001" xlink:type="simple"><polygon fill="#999999" filter="url(#f4sj3bf)" points="256.5,150,266.5,140,449.5,140,449.5,201.9063,439.5,211.9063,256.5,211.9063,256.5,150" style="stroke: #000000; stroke-width: 1.5;"/><line style="stroke: #000000; stroke-width: 1.5;" x1="439.5" x2="448.5" y1="150" y2="141"/><line style="stroke: #000000; stroke-width: 1.5;" x1="256.5" x2="439.5" y1="150" y2="150"/><line style="stroke: #000000; stroke-width: 1.5;" x1="439.5" x2="439.5" y1="150" y2="211.9063"/><text fill="#000000" font-family="sans-serif" font-size="12" lengthAdjust="spacingAndGlyphs" textLength="153" x="271.5" y="171.1387">Component Architecture</text><text fill="#000000" font-family="sans-serif" font-size="14" font-weight="bold" lengthAdjust="spacingAndGlyphs" textLength="65" x="271.5" y="186.9639">Example</text><text fill="#000000" font-family="sans-serif" font-size="10" lengthAdjust="spacingAndGlyphs" textLength="55" x="271.5" y="199.5479">COMP_001</text></a><!--entity SYS_002--><a target="_top" xlink:actuate="onRequest" xlink:href="../index.html#SYS_002" xlink:show="new" xlink:title="../index.html#SYS_002" xlink:type="simple"><polygon fill="#DCB239" filter="url(#f4sj3bf)" points="365,18,375,8,531,8,531,69.9063,521,79.9063,365,79.9063,365,18" style="stroke: #000000; stroke-width: 1.5;"/><line style="stroke: #000000; stroke-width: 1.5;" x1="521" x2="530" y1="18" y2="9"/><line style="stroke: #000000; stroke-width: 1.5;" x1="365" x2="521" y1="18" y2="18"/><line style="stroke: #000000; stroke-width: 1.5;" x1="521" x2="521" y1="18" y2="79.9063"/><text fill="#000000" font-family="sans-serif" font-size="12" lengthAdjust="spacingAndGlyphs" textLength="126" x="380" y="39.1387">System Architecture</text><text fill="#000000" font-family="sans-serif" font-size="14" font-weight="bold" lengthAdjust="spacingAndGlyphs" textLength="73" x="380" y="54.9639">System Y</text><text fill="#000000" font-family="sans-serif" font-size="10" lengthAdjust="spacingAndGlyphs" textLength="44" x="380" y="67.5479">SYS_002</text></a><!--entity COMP_USER--><a target="_top" xlink:actuate="onRequest" xlink:href="../index.html#COMP_USER" xlink:show="new" xlink:title="../index.html#COMP_USER" xlink:type="simple"><polygon fill="#999999" filter="url(#f4sj3bf)" points="566.5,18,576.5,8,759.5,8,759.5,69.9063,749.5,79.9063,566.5,79.9063,566.5,18" style="stroke: #000000; stroke-width: 1.5;"/><line style="stroke: #000000; stroke-width: 1.5;" x1="749.5" x2="758.5" y1="18" y2="9"/><line style="stroke: #000000; stroke-width: 1.5;" x1="566.5" x2="749.5" y1="18" y2="18"/><line style="stroke: #000000; stroke-width: 1.5;" x1="749.5" x2="749.5" y1="18" y2="79.9063"/><text fill="#000000" font-family="sans-serif" font-size="12" lengthAdjust="spacingAndGlyphs" textLength="153" x="581.5" y="39.1387">Component Architecture</text><text fill="#000000" font-family="sans-serif" font-size="14" font-weight="bold" lengthAdjust="spacingAndGlyphs" textLength="143" x="581.5" y="54.9639">User Management</text><text fill="#000000" font-family="sans-serif" font-size="10" lengthAdjust="spacingAndGlyphs" textLength="66" x="581.5" y="67.5479">COMP_USER</text></a><!--entity COMP_ORDER--><a target="_top" xlink:actuate="onRequest" xlink:href="../index.html#COMP_ORDER" xlink:show="new" xlink:title="../index.html#COMP_ORDER" xlink:type="simple"><polygon fill="#999999" filter="url(#f4sj3bf)" points="794.5,18,804.5,8,987.5,8,987.5,69.9063,977.5,79.9063,794.5,79.9063,794.5,18" style="stroke: #000000; stroke-width: 1.5;"/><line style="stroke: #000000; stroke-width: 1.5;" x1="977.5" x2="986.5" y1="18" y2="9"/><line style="stroke: #000000; stroke-width: 1.5;" x1="794.5" x2="977.5" y1="18" y2="18"/><line style="stroke: #000000; stroke-width: 1.5;" x1="977.5" x2="977.5" y1="18" y2="79.9063"/><text fill="#000000" font-family="sans-serif" font-size="12" lengthAdjust="spacingAndGlyphs" textLength="153" x="809.5" y="39.1387">Component Architecture</text><text fill="#000000" font-family="sans-serif" font-size="14" font-weight="bold" lengthAdjust="spacingAndGlyphs" textLength="109" x="809.5" y="54.9639">Order System</text><text fill="#000000" font-family="sans-serif" font-size="10" lengthAdjust="spacingAndGlyphs" textLength="74" x="809.5" y="67.5479">COMP_ORDER</text></a><path d="M66,80.18 C66,96.94 66,117.09 66,134.49 " fill="none" style="stroke: #A80036; stroke-width: 1.0;"/><polygon fill="#A80036" points="66,139.79,70,130.79,66,134.79,62,130.79,66,139.79" style="stroke: #A80036; stroke-width: 1.0;"/><path d="M275.69,80.18 C289.71,97.38 306.63,118.13 321.06,135.83 " fill="none" style="stroke: #A80036; stroke-width: 1.0;"/><polygon fill="#A80036" points="324.29,139.79,321.702,130.2873,321.13,135.9151,315.5022,135.3432,324.29,139.79" style="stroke: #A80036; stroke-width: 1.0;"/><path d="M422.29,80.18 C409.83,97.23 394.81,117.78 381.95,135.38 " fill="none" style="stroke: #A80036; stroke-width: 1.0;"/><polygon fill="#A80036" points="378.73,139.79,387.2801,134.9018,381.6887,135.7593,380.8311,130.1679,378.73,139.79" style="stroke: #A80036; stroke-width: 1.0;"/><!--
@startuml

' Nodes definition 

node "<size:12>User Story</size>\n**Example**\n<size:10>STORY_001</size>" as STORY_001 [[../index.html#STORY_001]] #BFD8D2 
node "<size:12>Specification</size>\n**Example**\n<size:10>SPEC_001</size>" as SPEC_001 [[../index.html#SPEC_001]] #FEDCD2 
node "<size:12>System Architecture</size>\n**System X**\n<size:10>SYS_001</size>" as SYS_001 [[../index.html#SYS_001]] #DCB239 
node "<size:12>Component Architecture</size>\n**Example**\n<size:10>COMP_001</size>" as COMP_001 [[../index.html#COMP_001]] #999999 
node "<size:12>System Architecture</size>\n**System Y**\n<size:10>SYS_002</size>" as SYS_002 [[../index.html#SYS_002]] #DCB239 
node "<size:12>Component Architecture</size>\n**User Management**\n<size:10>COMP_USER</size>" as COMP_USER [[../index.html#COMP_USER]] #999999 
node "<size:12>Component Architecture</size>\n**Order System**\n<size:10>COMP_ORDER</size>" as COMP_ORDER [[../index.html#COMP_ORDER]] #999999 

' Connection definition 

STORY_001 - -> SPEC_001
SYS_001 - -> COMP_001
SYS_002 - -> COMP_001

@enduml

PlantUML version 2017.10(Thu Apr 06 18:43:00 UTC 2017)
(GPL source distribution)
Java Runtime: OpenJDK Runtime Environment
JVM: OpenJDK 64-Bit Server VM
Java Version: 11.0.15+10
Operating System: Linux
OS Version: 5.13.0-1022-azure
Default Encoding: UTF-8
Language: en
Country: null
--></g></svg>