<?xml version="1.0" encoding="UTF-8" standalone="no"?><svg xmlns="http://www.w3.org/2000/svg" xmlns:xlink="http://www.w3.org/1999/xlink" contentStyleType="text/css" height="143px" preserveAspectRatio="none" style="width:209px;height:143px;background:#FFFFFF;" version="1.1" viewBox="0 0 209 143" width="209px" zoomAndPan="magnify"><defs/><g><!--MD5=[cf4d6237fcae255cd2e1656cf84a30e2]
class Order--><g id="elem_Order"><rect codeLine="1" fill="#F1F1F1" height="129.4844" id="Order" rx="2.5" ry="2.5" style="stroke:#181818;stroke-width:0.5;" width="74" x="7" y="7"/><ellipse cx="23.35" cy="23" fill="#ADD1B2" rx="11" ry="11" style="stroke:#181818;stroke-width:1.0;"/><path d="M26.3188,28.6406 Q25.7406,28.9375 25.1,29.0781 Q24.4594,29.2344 23.7563,29.2344 Q21.2563,29.2344 19.9281,27.5938 Q18.6156,25.9375 18.6156,22.8125 Q18.6156,19.6875 19.9281,18.0313 Q21.2563,16.375 23.7563,16.375 Q24.4594,16.375 25.1,16.5313 Q25.7563,16.6875 26.3188,16.9844 L26.3188,19.7031 Q25.6938,19.125 25.1,18.8594 Q24.5063,18.5781 23.8813,18.5781 Q22.5375,18.5781 21.85,19.6563 Q21.1625,20.7188 21.1625,22.8125 Q21.1625,24.9063 21.85,25.9844 Q22.5375,27.0469 23.8813,27.0469 Q24.5063,27.0469 25.1,26.7813 Q25.6938,26.5 26.3188,25.9219 L26.3188,28.6406 Z " fill="#000000"/><text fill="#000000" font-family="sans-serif" font-size="14" lengthAdjust="spacing" textLength="39" x="37.65" y="27.8467">Order</text><line style="stroke:#181818;stroke-width:0.5;" x1="8" x2="80" y1="39" y2="39"/><text fill="#000000" font-family="sans-serif" font-size="14" lengthAdjust="spacing" textLength="33" x="13" y="55.9951">int id</text><text fill="#000000" font-family="sans-serif" font-size="14" lengthAdjust="spacing" textLength="62" x="13" y="72.292">products</text><text fill="#000000" font-family="sans-serif" font-size="14" lengthAdjust="spacing" textLength="31" x="13" y="88.5889">user</text><line style="stroke:#181818;stroke-width:0.5;" x1="8" x2="80" y1="95.8906" y2="95.8906"/><text fill="#000000" font-family="sans-serif" font-size="14" lengthAdjust="spacing" textLength="54" x="13" y="112.8857">delete()</text><text fill="#000000" font-family="sans-serif" font-size="14" lengthAdjust="spacing" textLength="57" x="13" y="129.1826">accept()</text></g><!--MD5=[72136138052d025cffdce3c22fbd185f]
class Product--><g id="elem_Product"><rect codeLine="9" fill="#F1F1F1" height="96.8906" id="Product" rx="2.5" ry="2.5" style="stroke:#181818;stroke-width:0.5;" width="86" x="116" y="23"/><ellipse cx="131" cy="39" fill="#ADD1B2" rx="11" ry="11" style="stroke:#181818;stroke-width:1.0;"/><path d="M133.9688,44.6406 Q133.3906,44.9375 132.75,45.0781 Q132.1094,45.2344 131.4063,45.2344 Q128.9063,45.2344 127.5781,43.5938 Q126.2656,41.9375 126.2656,38.8125 Q126.2656,35.6875 127.5781,34.0313 Q128.9063,32.375 131.4063,32.375 Q132.1094,32.375 132.75,32.5313 Q133.4063,32.6875 133.9688,32.9844 L133.9688,35.7031 Q133.3438,35.125 132.75,34.8594 Q132.1563,34.5781 131.5313,34.5781 Q130.1875,34.5781 129.5,35.6563 Q128.8125,36.7188 128.8125,38.8125 Q128.8125,40.9063 129.5,41.9844 Q130.1875,43.0469 131.5313,43.0469 Q132.1563,43.0469 132.75,42.7813 Q133.3438,42.5 133.9688,41.9219 L133.9688,44.6406 Z " fill="#000000"/><text fill="#000000" font-family="sans-serif" font-size="14" lengthAdjust="spacing" textLength="54" x="145" y="43.8467">Product</text><line style="stroke:#181818;stroke-width:0.5;" x1="117" x2="201" y1="55" y2="55"/><text fill="#000000" font-family="sans-serif" font-size="14" lengthAdjust="spacing" textLength="33" x="122" y="71.9951">int id</text><text fill="#000000" font-family="sans-serif" font-size="14" lengthAdjust="spacing" textLength="61" x="122" y="88.292">str name</text><text fill="#000000" font-family="sans-serif" font-size="14" lengthAdjust="spacing" textLength="67" x="122" y="104.5889">float price</text><line style="stroke:#181818;stroke-width:0.5;" x1="117" x2="201" y1="111.8906" y2="111.8906"/></g><!--MD5=[e9f19b7cb7fceb8a230391eb3c9865e3]
reverse link Order to Product--><g id="link_Order_Product"><path codeLine="15" d="M94.53,71.5 C101.65,71.5 108.77,71.5 115.89,71.5 " fill="none" id="Order-backto-Product" style="stroke:#181818;stroke-width:1.0;"/><polygon fill="none" points="81.29,71.5,87.29,75.5,93.29,71.5,87.29,67.5,81.29,71.5" style="stroke:#181818;stroke-width:1.0;"/><text fill="#000000" font-family="sans-serif" font-size="13" lengthAdjust="spacing" textLength="23" x="84.8692" y="67.4831">1..*</text></g><!--MD5=[13d372c7c4917c00950e64ac30eecab7]
@startuml
    class Order {
     int id
     products
     user
     delete()
     accept()
    }

    class Product {
     int id
     str name
     float price
    }

    Order o- "1..*" Product
@enduml

PlantUML version 1.2022.5(Sat Apr 30 10:55:52 UTC 2022)
(GPL source distribution)
Java Runtime: OpenJDK Runtime Environment
JVM: OpenJDK 64-Bit Server VM
Default Encoding: UTF-8
Language: en
Country: null
--></g></svg>