<?xml version="1.0" encoding="UTF-8" standalone="no"?><svg xmlns="http://www.w3.org/2000/svg" xmlns:xlink="http://www.w3.org/1999/xlink" contentStyleType="text/css" height="289px" preserveAspectRatio="none" style="width:527px;height:289px;background:#FFFFFF;" version="1.1" viewBox="0 0 527 289" width="527px" zoomAndPan="magnify"><defs/><g><!--MD5=[1c06bc65cacb94901084dca082989242]
cluster COMP_USER--><g id="cluster_COMP_USER"><rect height="220" rx="2.5" ry="2.5" style="stroke:#181818;stroke-width:1.0;fill:none;" width="247" x="7" y="63.26"/><text fill="#000000" font-family="sans-serif" font-size="14" font-weight="bold" lengthAdjust="spacing" textLength="93" x="84" y="78.2551">COMP_USER</text></g><!--MD5=[6438804f6b4ffa6977b205dc496bcd7e]
cluster COMP_ORDER--><g id="cluster_COMP_ORDER"><rect height="187" rx="2.5" ry="2.5" style="stroke:#181818;stroke-width:1.0;fill:none;" width="243" x="278" y="79.76"/><text fill="#000000" font-family="sans-serif" font-size="14" font-weight="bold" lengthAdjust="spacing" textLength="105" x="347" y="94.7551">COMP_ORDER</text></g><!--MD5=[3fd616f346a44cd59a91eb10b19e157c]
class User--><g id="elem_User"><rect codeLine="1" fill="#F1F1F1" height="162.0781" id="User" rx="2.5" ry="2.5" style="stroke:#181818;stroke-width:0.5;" width="75" x="31.5" y="102.26"/><ellipse cx="51.45" cy="118.26" fill="#ADD1B2" rx="11" ry="11" style="stroke:#181818;stroke-width:1.0;"/><path d="M54.4188,123.9006 Q53.8406,124.1975 53.2,124.3381 Q52.5594,124.4944 51.8563,124.4944 Q49.3563,124.4944 48.0281,122.8537 Q46.7156,121.1975 46.7156,118.0725 Q46.7156,114.9475 48.0281,113.2912 Q49.3563,111.635 51.8563,111.635 Q52.5594,111.635 53.2,111.7912 Q53.8563,111.9475 54.4188,112.2444 L54.4188,114.9631 Q53.7938,114.385 53.2,114.1194 Q52.6063,113.8381 51.9813,113.8381 Q50.6375,113.8381 49.95,114.9162 Q49.2625,115.9787 49.2625,118.0725 Q49.2625,120.1662 49.95,121.2444 Q50.6375,122.3069 51.9813,122.3069 Q52.6063,122.3069 53.2,122.0412 Q53.7938,121.76 54.4188,121.1819 L54.4188,123.9006 Z " fill="#000000"/><text fill="#000000" font-family="sans-serif" font-size="14" lengthAdjust="spacing" textLength="32" x="66.55" y="123.1067">User</text><line style="stroke:#181818;stroke-width:0.5;" x1="32.5" x2="105.5" y1="134.26" y2="134.26"/><text fill="#000000" font-family="sans-serif" font-size="14" lengthAdjust="spacing" textLength="33" x="37.5" y="151.2551">int id</text><text fill="#000000" font-family="sans-serif" font-size="14" lengthAdjust="spacing" textLength="61" x="37.5" y="167.552">str name</text><text fill="#000000" font-family="sans-serif" font-size="14" lengthAdjust="spacing" textLength="58" x="37.5" y="183.8489">str email</text><text fill="#000000" font-family="sans-serif" font-size="14" lengthAdjust="spacing" textLength="56" x="37.5" y="200.1457">address</text><text fill="#000000" font-family="sans-serif" font-size="14" lengthAdjust="spacing" textLength="47" x="37.5" y="216.4426">int age</text><line style="stroke:#181818;stroke-width:0.5;" x1="32.5" x2="105.5" y1="223.7444" y2="223.7444"/><text fill="#000000" font-family="sans-serif" font-size="14" lengthAdjust="spacing" textLength="63" x="37.5" y="240.7395">activate()</text><text fill="#000000" font-family="sans-serif" font-size="14" lengthAdjust="spacing" textLength="47" x="37.5" y="257.0364">notify()</text></g><!--MD5=[0f39e4cb6f03951afbf6d14bd2505654]
class Address--><g id="elem_Address"><rect codeLine="11" fill="#F1F1F1" height="113.1875" id="Address" rx="2.5" ry="2.5" style="stroke:#181818;stroke-width:0.5;" width="89" x="149.5" y="126.26"/><ellipse cx="164.5" cy="142.26" fill="#ADD1B2" rx="11" ry="11" style="stroke:#181818;stroke-width:1.0;"/><path d="M167.4688,147.9006 Q166.8906,148.1975 166.25,148.3381 Q165.6094,148.4944 164.9063,148.4944 Q162.4063,148.4944 161.0781,146.8538 Q159.7656,145.1975 159.7656,142.0725 Q159.7656,138.9475 161.0781,137.2913 Q162.4063,135.635 164.9063,135.635 Q165.6094,135.635 166.25,135.7913 Q166.9063,135.9475 167.4688,136.2444 L167.4688,138.9631 Q166.8438,138.385 166.25,138.1194 Q165.6563,137.8381 165.0313,137.8381 Q163.6875,137.8381 163,138.9163 Q162.3125,139.9788 162.3125,142.0725 Q162.3125,144.1663 163,145.2444 Q163.6875,146.3069 165.0313,146.3069 Q165.6563,146.3069 166.25,146.0413 Q166.8438,145.76 167.4688,145.1819 L167.4688,147.9006 Z " fill="#000000"/><text fill="#000000" font-family="sans-serif" font-size="14" lengthAdjust="spacing" textLength="57" x="178.5" y="147.1067">Address</text><line style="stroke:#181818;stroke-width:0.5;" x1="150.5" x2="237.5" y1="158.26" y2="158.26"/><text fill="#000000" font-family="sans-serif" font-size="14" lengthAdjust="spacing" textLength="33" x="155.5" y="175.2551">int id</text><text fill="#000000" font-family="sans-serif" font-size="14" lengthAdjust="spacing" textLength="63" x="155.5" y="191.552">str street</text><text fill="#000000" font-family="sans-serif" font-size="14" lengthAdjust="spacing" textLength="45" x="155.5" y="207.8489">str city</text><text fill="#000000" font-family="sans-serif" font-size="14" lengthAdjust="spacing" textLength="74" x="155.5" y="224.1457">str country</text><line style="stroke:#181818;stroke-width:0.5;" x1="150.5" x2="237.5" y1="231.4475" y2="231.4475"/></g><!--MD5=[cf4d6237fcae255cd2e1656cf84a30e2]
class Order--><g id="elem_Order"><rect codeLine="1" fill="#F1F1F1" height="129.4844" id="Order" rx="2.5" ry="2.5" style="stroke:#181818;stroke-width:0.5;" width="74" x="302" y="118.76"/><ellipse cx="318.35" cy="134.76" fill="#ADD1B2" rx="11" ry="11" style="stroke:#181818;stroke-width:1.0;"/><path d="M321.3188,140.4006 Q320.7406,140.6975 320.1,140.8381 Q319.4594,140.9944 318.7563,140.9944 Q316.2563,140.9944 314.9281,139.3538 Q313.6156,137.6975 313.6156,134.5725 Q313.6156,131.4475 314.9281,129.7913 Q316.2563,128.135 318.7563,128.135 Q319.4594,128.135 320.1,128.2913 Q320.7563,128.4475 321.3188,128.7444 L321.3188,131.4631 Q320.6938,130.885 320.1,130.6194 Q319.5063,130.3381 318.8813,130.3381 Q317.5375,130.3381 316.85,131.4163 Q316.1625,132.4788 316.1625,134.5725 Q316.1625,136.6663 316.85,137.7444 Q317.5375,138.8069 318.8813,138.8069 Q319.5063,138.8069 320.1,138.5413 Q320.6938,138.26 321.3188,137.6819 L321.3188,140.4006 Z " fill="#000000"/><text fill="#000000" font-family="sans-serif" font-size="14" lengthAdjust="spacing" textLength="39" x="332.65" y="139.6067">Order</text><line style="stroke:#181818;stroke-width:0.5;" x1="303" x2="375" y1="150.76" y2="150.76"/><text fill="#000000" font-family="sans-serif" font-size="14" lengthAdjust="spacing" textLength="33" x="308" y="167.7551">int id</text><text fill="#000000" font-family="sans-serif" font-size="14" lengthAdjust="spacing" textLength="62" x="308" y="184.052">products</text><text fill="#000000" font-family="sans-serif" font-size="14" lengthAdjust="spacing" textLength="31" x="308" y="200.3489">user</text><line style="stroke:#181818;stroke-width:0.5;" x1="303" x2="375" y1="207.6506" y2="207.6506"/><text fill="#000000" font-family="sans-serif" font-size="14" lengthAdjust="spacing" textLength="54" x="308" y="224.6457">delete()</text><text fill="#000000" font-family="sans-serif" font-size="14" lengthAdjust="spacing" textLength="57" x="308" y="240.9426">accept()</text></g><!--MD5=[72136138052d025cffdce3c22fbd185f]
class Product--><g id="elem_Product"><rect codeLine="9" fill="#F1F1F1" height="96.8906" id="Product" rx="2.5" ry="2.5" style="stroke:#181818;stroke-width:0.5;" width="86" x="419" y="134.26"/><ellipse cx="434" cy="150.26" fill="#ADD1B2" rx="11" ry="11" style="stroke:#181818;stroke-width:1.0;"/><path d="M436.9688,155.9006 Q436.3906,156.1975 435.75,156.3381 Q435.1094,156.4944 434.4063,156.4944 Q431.9063,156.4944 430.5781,154.8538 Q429.2656,153.1975 429.2656,150.0725 Q429.2656,146.9475 430.5781,145.2913 Q431.9063,143.635 434.4063,143.635 Q435.1094,143.635 435.75,143.7913 Q436.4063,143.9475 436.9688,144.2444 L436.9688,146.9631 Q436.3438,146.385 435.75,146.1194 Q435.1563,145.8381 434.5313,145.8381 Q433.1875,145.8381 432.5,146.9163 Q431.8125,147.9788 431.8125,150.0725 Q431.8125,152.1663 432.5,153.2444 Q433.1875,154.3069 434.5313,154.3069 Q435.1563,154.3069 435.75,154.0413 Q436.3438,153.76 436.9688,153.1819 L436.9688,155.9006 Z " fill="#000000"/><text fill="#000000" font-family="sans-serif" font-size="14" lengthAdjust="spacing" textLength="54" x="448" y="155.1067">Product</text><line style="stroke:#181818;stroke-width:0.5;" x1="420" x2="504" y1="166.26" y2="166.26"/><text fill="#000000" font-family="sans-serif" font-size="14" lengthAdjust="spacing" textLength="33" x="425" y="183.2551">int id</text><text fill="#000000" font-family="sans-serif" font-size="14" lengthAdjust="spacing" textLength="61" x="425" y="199.552">str name</text><text fill="#000000" font-family="sans-serif" font-size="14" lengthAdjust="spacing" textLength="67" x="425" y="215.8489">float price</text><line style="stroke:#181818;stroke-width:0.5;" x1="420" x2="504" y1="223.1506" y2="223.1506"/></g><!--MD5=[c5838101b3c45438f8850ad1fc969b69]
reverse link User to Address--><g id="link_User_Address"><path codeLine="18" d="M128.03,182.76 C135.08,182.76 142.14,182.76 149.2,182.76 " fill="none" id="User-backto-Address" style="stroke:#181818;stroke-width:1.0;"/><polygon fill="none" points="114.9,182.76,120.9,186.76,126.9,182.76,120.9,178.76,114.9,182.76" style="stroke:#181818;stroke-width:1.0;"/><text fill="#000000" font-family="sans-serif" font-size="13" lengthAdjust="spacing" textLength="23" x="114.3659" y="178.8154">1..*</text></g><!--MD5=[e9f19b7cb7fceb8a230391eb3c9865e3]
reverse link Order to Product--><g id="link_Order_Product"><path codeLine="15" d="M397.43,182.76 C404.56,182.76 411.69,182.76 418.83,182.76 " fill="none" id="Order-backto-Product" style="stroke:#181818;stroke-width:1.0;"/><polygon fill="none" points="384.16,182.76,390.16,186.76,396.16,182.76,390.16,178.76,384.16,182.76" style="stroke:#181818;stroke-width:1.0;"/><text fill="#000000" font-family="sans-serif" font-size="13" lengthAdjust="spacing" textLength="23" x="388.142" y="178.7892">1..*</text></g><!--MD5=[5b2a2bdb39cc116e4a78ea074bb38160]
link User to Order--><g id="link_User_Order"><path codeLine="17" d="M108,146.76 C150.04,146.76 115.93,94.11 132,55.26 C137.9,41 136.11,32.95 149.5,25.26 C183.03,6 202.97,6 236.5,25.26 C302.03,62.9 230.54,178.94 287.76,193.3 " fill="none" id="User-to-Order" style="stroke:#181818;stroke-width:1.0;"/><polygon fill="none" points="301,194.76,295.4756,190.1252,289.0726,193.4421,294.597,198.0768,301,194.76" style="stroke:#181818;stroke-width:1.0;"/></g><!--MD5=[61dac14b7c74c8883986d79485c1b315]
@startuml
    allow_mixing

    '' code from COMP_USER

    package COMP_USER <<Rectangle>> {

        !include plantuml/comp_a.puml
    }

    '' code from COMP_ORDER

    package COMP_ORDER <<Rectangle>> {
        !include plantuml/comp_b.puml
    }

    '' code from need_arch
    Order::user o-left- User::id

   @enduml

@startuml
    allow_mixing


    package COMP_USER <<Rectangle>> {

    class User {
     int id
     str name
     str email
     address
     int age
     activate()
     notify()
    }

    class Address {
     int id
     str street
     str city
     str country
    }

    User  o- "1..* "Address
    }


    package COMP_ORDER <<Rectangle>> {
    class Order {
     int id
     products
     user
     delete()
     accept()
    }

    class Product {
     int id
     str name
     float price
    }

    Order o- "1..*" Product
    }

    Order::user o-left- User::id

   @enduml

PlantUML version 1.2022.5(Sat Apr 30 10:55:52 UTC 2022)
(GPL source distribution)
Java Runtime: OpenJDK Runtime Environment
JVM: OpenJDK 64-Bit Server VM
Default Encoding: UTF-8
Language: en
Country: null
--></g></svg>