<?xml version="1.0" encoding="UTF-8" standalone="no"?><svg xmlns="http://www.w3.org/2000/svg" xmlns:xlink="http://www.w3.org/1999/xlink" contentStyleType="text/css" height="176px" preserveAspectRatio="none" style="width:213px;height:176px;background:#FFFFFF;" version="1.1" viewBox="0 0 213 176" width="213px" zoomAndPan="magnify"><defs/><g><!--MD5=[3fd616f346a44cd59a91eb10b19e157c]
class User--><g id="elem_User"><rect codeLine="1" fill="#F1F1F1" height="162.0781" id="User" rx="2.5" ry="2.5" style="stroke:#181818;stroke-width:0.5;" width="75" x="7" y="7"/><ellipse cx="26.95" cy="23" fill="#ADD1B2" rx="11" ry="11" style="stroke:#181818;stroke-width:1.0;"/><path d="M29.9188,28.6406 Q29.3406,28.9375 28.7,29.0781 Q28.0594,29.2344 27.3563,29.2344 Q24.8563,29.2344 23.5281,27.5938 Q22.2156,25.9375 22.2156,22.8125 Q22.2156,19.6875 23.5281,18.0313 Q24.8563,16.375 27.3563,16.375 Q28.0594,16.375 28.7,16.5313 Q29.3563,16.6875 29.9188,16.9844 L29.9188,19.7031 Q29.2938,19.125 28.7,18.8594 Q28.1063,18.5781 27.4813,18.5781 Q26.1375,18.5781 25.45,19.6563 Q24.7625,20.7188 24.7625,22.8125 Q24.7625,24.9063 25.45,25.9844 Q26.1375,27.0469 27.4813,27.0469 Q28.1063,27.0469 28.7,26.7813 Q29.2938,26.5 29.9188,25.9219 L29.9188,28.6406 Z " fill="#000000"/><text fill="#000000" font-family="sans-serif" font-size="14" lengthAdjust="spacing" textLength="32" x="42.05" y="27.8467">User</text><line style="stroke:#181818;stroke-width:0.5;" x1="8" x2="81" y1="39" y2="39"/><text fill="#000000" font-family="sans-serif" font-size="14" lengthAdjust="spacing" textLength="33" x="13" y="55.9951">int id</text><text fill="#000000" font-family="sans-serif" font-size="14" lengthAdjust="spacing" textLength="61" x="13" y="72.292">str name</text><text fill="#000000" font-family="sans-serif" font-size="14" lengthAdjust="spacing" textLength="58" x="13" y="88.5889">str email</text><text fill="#000000" font-family="sans-serif" font-size="14" lengthAdjust="spacing" textLength="56" x="13" y="104.8857">address</text><text fill="#000000" font-family="sans-serif" font-size="14" lengthAdjust="spacing" textLength="47" x="13" y="121.1826">int age</text><line style="stroke:#181818;stroke-width:0.5;" x1="8" x2="81" y1="128.4844" y2="128.4844"/><text fill="#000000" font-family="sans-serif" font-size="14" lengthAdjust="spacing" textLength="63" x="13" y="145.4795">activate()</text><text fill="#000000" font-family="sans-serif" font-size="14" lengthAdjust="spacing" textLength="47" x="13" y="161.7764">notify()</text></g><!--MD5=[0f39e4cb6f03951afbf6d14bd2505654]
class Address--><g id="elem_Address"><rect codeLine="11" fill="#F1F1F1" height="113.1875" id="Address" rx="2.5" ry="2.5" style="stroke:#181818;stroke-width:0.5;" width="89" x="117" y="31.5"/><ellipse cx="132" cy="47.5" fill="#ADD1B2" rx="11" ry="11" style="stroke:#181818;stroke-width:1.0;"/><path d="M134.9688,53.1406 Q134.3906,53.4375 133.75,53.5781 Q133.1094,53.7344 132.4063,53.7344 Q129.9063,53.7344 128.5781,52.0938 Q127.2656,50.4375 127.2656,47.3125 Q127.2656,44.1875 128.5781,42.5313 Q129.9063,40.875 132.4063,40.875 Q133.1094,40.875 133.75,41.0313 Q134.4063,41.1875 134.9688,41.4844 L134.9688,44.2031 Q134.3438,43.625 133.75,43.3594 Q133.1563,43.0781 132.5313,43.0781 Q131.1875,43.0781 130.5,44.1563 Q129.8125,45.2188 129.8125,47.3125 Q129.8125,49.4063 130.5,50.4844 Q131.1875,51.5469 132.5313,51.5469 Q133.1563,51.5469 133.75,51.2813 Q134.3438,51 134.9688,50.4219 L134.9688,53.1406 Z " fill="#000000"/><text fill="#000000" font-family="sans-serif" font-size="14" lengthAdjust="spacing" textLength="57" x="146" y="52.3467">Address</text><line style="stroke:#181818;stroke-width:0.5;" x1="118" x2="205" y1="63.5" y2="63.5"/><text fill="#000000" font-family="sans-serif" font-size="14" lengthAdjust="spacing" textLength="33" x="123" y="80.4951">int id</text><text fill="#000000" font-family="sans-serif" font-size="14" lengthAdjust="spacing" textLength="63" x="123" y="96.792">str street</text><text fill="#000000" font-family="sans-serif" font-size="14" lengthAdjust="spacing" textLength="45" x="123" y="113.0889">str city</text><text fill="#000000" font-family="sans-serif" font-size="14" lengthAdjust="spacing" textLength="74" x="123" y="129.3857">str country</text><line style="stroke:#181818;stroke-width:0.5;" x1="118" x2="205" y1="136.6875" y2="136.6875"/></g><!--MD5=[c5838101b3c45438f8850ad1fc969b69]
reverse link User to Address--><g id="link_User_Address"><path codeLine="18" d="M95.56,88 C102.61,88 109.66,88 116.72,88 " fill="none" id="User-backto-Address" style="stroke:#181818;stroke-width:1.0;"/><polygon fill="none" points="82.43,88,88.43,92,94.43,88,88.43,84,82.43,88" style="stroke:#181818;stroke-width:1.0;"/><text fill="#000000" font-family="sans-serif" font-size="13" lengthAdjust="spacing" textLength="23" x="81.8383" y="83.9684">1..*</text></g><!--MD5=[d2974db7f1a4f37bbd997defcdf524f8]
@startuml
    class User {
     int id
     str name
     str email
     address
     int age
     activate()
     notify()
    }

    class Address {
     int id
     str street
     str city
     str country
    }

    User  o- "1..* "Address
@enduml

PlantUML version 1.2022.5(Sat Apr 30 10:55:52 UTC 2022)
(GPL source distribution)
Java Runtime: OpenJDK Runtime Environment
JVM: OpenJDK 64-Bit Server VM
Default Encoding: UTF-8
Language: en
Country: null
--></g></svg>