<?xml version="1.0" encoding="UTF-8" standalone="no"?><svg xmlns="http://www.w3.org/2000/svg" xmlns:xlink="http://www.w3.org/1999/xlink" contentStyleType="text/css" height="211px" preserveAspectRatio="none" style="width:406px;height:211px;background:#FFFFFF;" version="1.1" viewBox="0 0 406 211" width="406px" zoomAndPan="magnify"><defs/><g><!--MD5=[db8cdea55f22f4c3b6ac5747c5fce350]
cluster foo--><g id="cluster_foo"><polygon points="75.5,16,85.5,6,247.5,6,247.5,184,237.5,194,75.5,194,75.5,16" style="stroke:#181818;stroke-width:1.0;fill:none;"/><line style="stroke:#181818;stroke-width:1.0;fill:none;" x1="237.5" x2="247.5" y1="16" y2="6"/><line style="stroke:#181818;stroke-width:1.0;fill:none;" x1="75.5" x2="237.5" y1="16" y2="16"/><line style="stroke:#181818;stroke-width:1.0;fill:none;" x1="237.5" x2="237.5" y1="16" y2="194"/><text fill="#000000" font-family="sans-serif" font-size="14" font-weight="bold" lengthAdjust="spacing" textLength="96" x="109.5" y="31.9951">System FOO</text></g><!--MD5=[0deaa3b5109ef6b9d77237e0dbc10fce]
entity int_a--><g id="elem_int_a"><rect fill="#F1F1F1" height="22.2969" rx="2.5" ry="2.5" style="stroke:#181818;stroke-width:0.5;" width="93" x="99" y="54"/><text fill="#000000" font-family="sans-serif" font-size="14" lengthAdjust="spacing" textLength="73" x="109" y="69.9951">Interface A</text></g><!--MD5=[548e38777648744b016a1558a9aa3179]
entity func_x--><g id="elem_func_x"><rect fill="#F1F1F1" height="22.2969" rx="2.5" ry="2.5" style="stroke:#181818;stroke-width:0.5;" width="93" x="99" y="148"/><text fill="#000000" font-family="sans-serif" font-size="14" lengthAdjust="spacing" textLength="73" x="109" y="163.9951">Function X</text></g><!--MD5=[265452395c434bb34a0d6516332b9809]
entity int_y--><g id="elem_int_y"><ellipse cx="42.5" cy="65" fill="#F1F1F1" rx="8" ry="8" style="stroke:#181818;stroke-width:0.5;"/><text fill="#000000" font-family="sans-serif" font-size="14" lengthAdjust="spacing" textLength="73" x="6" y="94.9951">Interface Y</text></g><!--MD5=[e7e2d538e1588ff0e1dba32ca331f577]
entity bar--><g id="elem_bar"><polygon fill="#F1F1F1" points="271.5,146,281.5,136,389.5,136,389.5,172.2969,379.5,182.2969,271.5,182.2969,271.5,146" style="stroke:#181818;stroke-width:0.5;"/><line style="stroke:#181818;stroke-width:0.5;" x1="379.5" x2="389.5" y1="146" y2="136"/><line style="stroke:#181818;stroke-width:0.5;" x1="271.5" x2="379.5" y1="146" y2="146"/><line style="stroke:#181818;stroke-width:0.5;" x1="379.5" x2="379.5" y1="146" y2="182.2969"/><text fill="#000000" font-family="sans-serif" font-size="14" lengthAdjust="spacing" textLength="78" x="286.5" y="168.9951">System Bar</text></g><!--MD5=[cc2b7304a11f221c469cf7a279a52ebd]
link int_a to func_x--><g id="link_int_a_func_x"><path d="M145.5,76.2 C145.5,92.22 145.5,123.42 145.5,142.32 " fill="none" id="int_a-to-func_x" style="stroke:#181818;stroke-width:1.0;"/><polygon fill="#181818" points="145.5,147.76,149.5,138.76,145.5,142.76,141.5,138.76,145.5,147.76" style="stroke:#181818;stroke-width:1.0;"/></g><!--MD5=[befc130ab87a5aaa3a836a96ad6474fb]
link int_y to int_a--><g id="link_int_y_int_a"><path d="M51.75,65 C65.78,65 79.8,65 93.83,65 " fill="none" id="int_y-to-int_a" style="stroke:#181818;stroke-width:1.0;"/><polygon fill="#181818" points="98.99,65,89.99,61,93.99,65,89.99,69,98.99,65" style="stroke:#181818;stroke-width:1.0;"/></g><!--MD5=[59d9d0f196456f6685b04666c1f4428d]
link foo to bar--><g id="link_foo_bar"><path d="M247.6144,74.2017 C247.8851,74.4754 248.1615,74.7548 248.4434,75.0398 C249.0071,75.6096 249.5927,76.2016 250.1988,76.8142 C251.4109,78.0395 252.7049,79.3475 254.0693,80.7268 C256.7982,83.4854 259.8091,86.5291 263.0113,89.7663 C275.82,102.715 291.69,118.76 304.82,132.04 " fill="none" id="foo-to-bar" style="stroke:#181818;stroke-width:1.0;"/><polygon fill="#181818" points="308.61,135.87,305.1302,126.6564,305.096,132.3131,299.4392,132.2788,308.61,135.87" style="stroke:#181818;stroke-width:1.0;"/></g><!--MD5=[f0f34c7a72854b39dfe31c927bbc7f08]
@startuml

node "System FOO" as foo {
  card "Interface A" as int_a
card "Function X" as func_x

int_a - -> func_x
}

circle "Interface Y" as int_y

int_y -> int_a
node "System Bar" as bar

foo - -> bar
@enduml

PlantUML version 1.2022.5(Sat Apr 30 10:55:52 UTC 2022)
(GPL source distribution)
Java Runtime: OpenJDK Runtime Environment
JVM: OpenJDK 64-Bit Server VM
Default Encoding: UTF-8
Language: en
Country: null
--></g></svg>