<?xml version="1.0" encoding="UTF-8" standalone="no"?><svg xmlns="http://www.w3.org/2000/svg" xmlns:xlink="http://www.w3.org/1999/xlink" contentStyleType="text/css" height="168px" preserveAspectRatio="none" style="width:128px;height:168px;background:#FFFFFF;" version="1.1" viewBox="0 0 128 168" width="128px" zoomAndPan="magnify"><defs/><g><!--MD5=[a39f4bffbea95f922f5da8714f49e9ec]
entity Foo--><g id="elem_Foo"><rect fill="#F1F1F1" height="22.2969" rx="2.5" ry="2.5" style="stroke:#181818;stroke-width:0.5;" width="46" x="25.89" y="7"/><text fill="#000000" font-family="sans-serif" font-size="14" lengthAdjust="spacing" textLength="26" x="35.89" y="22.9951">Foo</text></g><!--MD5=[5d3e5bfd2b96147e46ddf7f881195930]
entity Bar--><g id="elem_Bar"><path d="M27.39,116 C27.39,106 48.89,106 48.89,106 C48.89,106 70.39,106 70.39,116 L70.39,141.2969 C70.39,151.2969 48.89,151.2969 48.89,151.2969 C48.89,151.2969 27.39,151.2969 27.39,141.2969 L27.39,116 " fill="#F1F1F1" style="stroke:#181818;stroke-width:0.5;"/><path d="M27.39,116 C27.39,126 48.89,126 48.89,126 C48.89,126 70.39,126 70.39,116 " fill="none" style="stroke:#181818;stroke-width:0.5;"/><text fill="#000000" font-family="sans-serif" font-size="14" lengthAdjust="spacing" textLength="23" x="37.39" y="142.9951">Bar</text></g><!--MD5=[90b0c988d953c14a3b2d08901c0cc78d]
link Foo to Bar--><g id="link_Foo_Bar"><path d="M33.72,29.31 C24.65,36.45 13.92,46.84 8.89,59 C6,65.98 6.44,68.85 8.89,76 C12.11,85.4 17.82,94.4 23.94,102.18 " fill="none" id="Foo-to-Bar" style="stroke:#181818;stroke-width:1.0;"/><polygon fill="#181818" points="27.37,106.37,24.761,96.873,24.2015,102.5021,18.5724,101.9426,27.37,106.37" style="stroke:#181818;stroke-width:1.0;"/><text fill="#000000" font-family="sans-serif" font-size="13" lengthAdjust="spacing" textLength="32" x="9.89" y="72.0669">Hello</text></g><!--MD5=[ec565736fa8c4caa1babd015b786ad3a]
link Bar to Foo--><g id="link_Bar_Foo"><path d="M48.89,106 C48.89,84.86 48.89,53.11 48.89,34.38 " fill="none" id="Bar-to-Foo" style="stroke:#181818;stroke-width:1.0;"/><polygon fill="#181818" points="48.89,29.01,44.89,38.01,48.89,34.01,52.89,38.01,48.89,29.01" style="stroke:#181818;stroke-width:1.0;"/><text fill="#000000" font-family="sans-serif" font-size="13" lengthAdjust="spacing" textLength="71" x="49.89" y="72.0669">Hello again</text></g><!--MD5=[f7b7f886a1af585071667d3f7b0ccf83]
@startuml

card Foo
database Bar
Foo - -> Bar: Hello

Bar - -> Foo: Hello again
@enduml

PlantUML version 1.2022.5(Sat Apr 30 10:55:52 UTC 2022)
(GPL source distribution)
Java Runtime: OpenJDK Runtime Environment
JVM: OpenJDK 64-Bit Server VM
Default Encoding: UTF-8
Language: en
Country: null
--></g></svg>