<?xml version="1.0" encoding="UTF-8" standalone="no"?><svg xmlns="http://www.w3.org/2000/svg" xmlns:xlink="http://www.w3.org/1999/xlink" contentStyleType="text/css" height="183px" preserveAspectRatio="none" style="width:244px;height:183px;background:#FFFFFF;" version="1.1" viewBox="0 0 244 183" width="244px" zoomAndPan="magnify"><defs/><g><!--MD5=[326d893af9d57096e3e1e87b28f212c8]
cluster sys_b--><g id="cluster_sys_b"><polygon points="67.5,16,77.5,6,227.5,6,227.5,156,217.5,166,67.5,166,67.5,16" style="stroke:#181818;stroke-width:1.0;fill:none;"/><line style="stroke:#181818;stroke-width:1.0;fill:none;" x1="217.5" x2="227.5" y1="16" y2="6"/><line style="stroke:#181818;stroke-width:1.0;fill:none;" x1="67.5" x2="217.5" y1="16" y2="16"/><line style="stroke:#181818;stroke-width:1.0;fill:none;" x1="217.5" x2="217.5" y1="16" y2="166"/><text fill="#000000" font-family="sans-serif" font-size="14" font-weight="bold" lengthAdjust="spacing" textLength="73" x="107" y="31.9951">System B</text></g><!--MD5=[b1c884860531777bc081940d82065b2a]
entity int--><g id="elem_int"><rect fill="#F1F1F1" height="22.2969" rx="2.5" ry="2.5" style="stroke:#181818;stroke-width:0.5;" width="94" x="93.5" y="46"/><text fill="#000000" font-family="sans-serif" font-size="14" lengthAdjust="spacing" textLength="74" x="103.5" y="61.9951">Interface B</text></g><!--MD5=[58b586ad9caebef2cfd75194b6a3785c]
entity func--><g id="elem_func"><rect fill="#F1F1F1" height="22.2969" rx="2.5" ry="2.5" style="stroke:#181818;stroke-width:0.5;" width="128" x="83.5" y="128"/><text fill="#000000" font-family="sans-serif" font-size="14" lengthAdjust="spacing" textLength="108" x="93.5" y="143.9951">Function SYS_B</text></g><!--MD5=[265452395c434bb34a0d6516332b9809]
entity int_y--><g id="elem_int_y"><ellipse cx="42.5" cy="57" fill="#F1F1F1" rx="8" ry="8" style="stroke:#181818;stroke-width:0.5;"/><text fill="#000000" font-family="sans-serif" font-size="14" lengthAdjust="spacing" textLength="73" x="6" y="86.9951">Interface Y</text></g><!--MD5=[153d9f5a1618db04c87393d675819bbd]
link int to func--><g id="link_int_func"><path d="M141.39,68.13 C142.6,81.96 144.77,106.84 146.18,122.88 " fill="none" id="int-to-func" style="stroke:#181818;stroke-width:1.0;"/><polygon fill="#181818" points="146.62,127.95,149.8345,118.6405,146.1918,122.9684,141.8639,119.3256,146.62,127.95" style="stroke:#181818;stroke-width:1.0;"/></g><!--MD5=[cb2e9f846e8c2d31cba4bb83c2defa68]
link int_y to int--><g id="link_int_y_int"><path d="M51.69,57 C63.83,57 75.97,57 88.11,57 " fill="none" id="int_y-to-int" style="stroke:#181818;stroke-width:1.0;"/><polygon fill="#181818" points="93.32,57,84.32,53,88.32,57,84.32,61,93.32,57" style="stroke:#181818;stroke-width:1.0;"/></g><!--MD5=[25cb65b198d5b2eee42e04cfe64b22d7]
@startuml

node "System B" as sys_b {
  
card "Interface B" as int


card "Function SYS_B" as func

int - -> func
}

circle "Interface Y" as int_y
int_y -> int
@enduml

PlantUML version 1.2022.5(Sat Apr 30 10:55:52 UTC 2022)
(GPL source distribution)
Java Runtime: OpenJDK Runtime Environment
JVM: OpenJDK 64-Bit Server VM
Default Encoding: UTF-8
Language: en
Country: null
--></g></svg>