<?xml version="1.0" encoding="UTF-8" standalone="no"?><svg xmlns="http://www.w3.org/2000/svg" xmlns:xlink="http://www.w3.org/1999/xlink" contentStyleType="text/css" height="168px" preserveAspectRatio="none" style="width:71px;height:168px;background:#FFFFFF;" version="1.1" viewBox="0 0 71 168" width="71px" zoomAndPan="magnify"><defs/><g><!--MD5=[a39f4bffbea95f922f5da8714f49e9ec]
entity Foo--><g id="elem_Foo"><rect fill="#F1F1F1" height="22.2969" rx="2.5" ry="2.5" style="stroke:#181818;stroke-width:0.5;" width="46" x="7" y="7"/><text fill="#000000" font-family="sans-serif" font-size="14" lengthAdjust="spacing" textLength="26" x="17" y="22.9951">Foo</text></g><!--MD5=[5d3e5bfd2b96147e46ddf7f881195930]
entity Bar--><g id="elem_Bar"><path d="M8.5,116 C8.5,106 30,106 30,106 C30,106 51.5,106 51.5,116 L51.5,141.2969 C51.5,151.2969 30,151.2969 30,151.2969 C30,151.2969 8.5,151.2969 8.5,141.2969 L8.5,116 " fill="#F1F1F1" style="stroke:#181818;stroke-width:0.5;"/><path d="M8.5,116 C8.5,126 30,126 30,126 C30,126 51.5,126 51.5,116 " fill="none" style="stroke:#181818;stroke-width:0.5;"/><text fill="#000000" font-family="sans-serif" font-size="14" lengthAdjust="spacing" textLength="23" x="18.5" y="142.9951">Bar</text></g><!--MD5=[90b0c988d953c14a3b2d08901c0cc78d]
link Foo to Bar--><g id="link_Foo_Bar"><path d="M30,29.01 C30,45.21 30,77.67 30,100.9 " fill="none" id="Foo-to-Bar" style="stroke:#181818;stroke-width:1.0;"/><polygon fill="#181818" points="30,106,34,97,30,101,26,97,30,106" style="stroke:#181818;stroke-width:1.0;"/><text fill="#000000" font-family="sans-serif" font-size="13" lengthAdjust="spacing" textLength="32" x="31" y="72.0669">Hello</text></g><!--MD5=[2d2755e934ff2934f72eca9fffde0e20]
@startuml

card Foo
database Bar
Foo - -> Bar: Hello
@enduml

PlantUML version 1.2022.5(Sat Apr 30 10:55:52 UTC 2022)
(GPL source distribution)
Java Runtime: OpenJDK Runtime Environment
JVM: OpenJDK 64-Bit Server VM
Default Encoding: UTF-8
Language: en
Country: null
--></g></svg>