<?xml version="1.0" encoding="UTF-8" standalone="no"?><svg xmlns="http://www.w3.org/2000/svg" xmlns:xlink="http://www.w3.org/1999/xlink" contentScriptType="application/ecmascript" contentStyleType="text/css" height="133px" preserveAspectRatio="none" style="width:257px;height:133px;" version="1.1" viewBox="0 0 257 133" width="257px" zoomAndPan="magnify"><defs><filter height="300%" id="fheyhrg" width="300%" x="-1" y="-1"><feGaussianBlur result="blurOut" stdDeviation="2.0"/><feColorMatrix in="blurOut" result="blurOut2" type="matrix" values="0 0 0 0 0 0 0 0 0 0 0 0 0 0 0 0 0 0 .4 0"/><feOffset dx="4.0" dy="4.0" in="blurOut2" result="blurOut3"/><feBlend in="SourceGraphic" in2="blurOut3" mode="normal"/></filter></defs><g><!--class Order--><rect fill="#FEFECE" filter="url(#fheyhrg)" height="112.0234" style="stroke: #A80036; stroke-width: 1.5;" width="67" x="14" y="12"/><ellipse cx="29" cy="28" fill="#ADD1B2" rx="11" ry="11" style="stroke: #A80036; stroke-width: 1.0;"/><path d="M31.9688,33.6406 Q31.3906,33.9375 30.75,34.0781 Q30.1094,34.2344 29.4063,34.2344 Q26.9063,34.2344 25.5781,32.5938 Q24.2656,30.9375 24.2656,27.8125 Q24.2656,24.6875 25.5781,23.0313 Q26.9063,21.375 29.4063,21.375 Q30.1094,21.375 30.75,21.5313 Q31.4063,21.6875 31.9688,21.9844 L31.9688,24.7031 Q31.3438,24.125 30.75,23.8594 Q30.1563,23.5781 29.5313,23.5781 Q28.1875,23.5781 27.5,24.6563 Q26.8125,25.7188 26.8125,27.8125 Q26.8125,29.9063 27.5,30.9844 Q28.1875,32.0469 29.5313,32.0469 Q30.1563,32.0469 30.75,31.7813 Q31.3438,31.5 31.9688,30.9219 L31.9688,33.6406 Z "/><text fill="#000000" font-family="sans-serif" font-size="12" lengthAdjust="spacingAndGlyphs" textLength="35" x="43" y="32.1543">Order</text><line style="stroke: #A80036; stroke-width: 1.5;" x1="15" x2="80" y1="44" y2="44"/><text fill="#000000" font-family="sans-serif" font-size="11" lengthAdjust="spacingAndGlyphs" textLength="28" x="20" y="58.2104">int id</text><text fill="#000000" font-family="sans-serif" font-size="11" lengthAdjust="spacingAndGlyphs" textLength="50" x="20" y="71.0151">products</text><text fill="#000000" font-family="sans-serif" font-size="11" lengthAdjust="spacingAndGlyphs" textLength="26" x="20" y="83.8198">user</text><line style="stroke: #A80036; stroke-width: 1.5;" x1="15" x2="80" y1="90.4141" y2="90.4141"/><text fill="#000000" font-family="sans-serif" font-size="11" lengthAdjust="spacingAndGlyphs" textLength="43" x="20" y="104.6245">delete()</text><text fill="#000000" font-family="sans-serif" font-size="11" lengthAdjust="spacingAndGlyphs" textLength="45" x="20" y="117.4292">accept()</text><!--class Product--><rect fill="#FEFECE" filter="url(#fheyhrg)" height="86.4141" style="stroke: #A80036; stroke-width: 1.5;" width="81" x="167" y="24.5"/><ellipse cx="182" cy="40.5" fill="#ADD1B2" rx="11" ry="11" style="stroke: #A80036; stroke-width: 1.0;"/><path d="M184.9688,46.1406 Q184.3906,46.4375 183.75,46.5781 Q183.1094,46.7344 182.4063,46.7344 Q179.9063,46.7344 178.5781,45.0938 Q177.2656,43.4375 177.2656,40.3125 Q177.2656,37.1875 178.5781,35.5313 Q179.9063,33.875 182.4063,33.875 Q183.1094,33.875 183.75,34.0313 Q184.4063,34.1875 184.9688,34.4844 L184.9688,37.2031 Q184.3438,36.625 183.75,36.3594 Q183.1563,36.0781 182.5313,36.0781 Q181.1875,36.0781 180.5,37.1563 Q179.8125,38.2188 179.8125,40.3125 Q179.8125,42.4063 180.5,43.4844 Q181.1875,44.5469 182.5313,44.5469 Q183.1563,44.5469 183.75,44.2813 Q184.3438,44 184.9688,43.4219 L184.9688,46.1406 Z "/><text fill="#000000" font-family="sans-serif" font-size="12" lengthAdjust="spacingAndGlyphs" textLength="49" x="196" y="44.6543">Product</text><line style="stroke: #A80036; stroke-width: 1.5;" x1="168" x2="247" y1="56.5" y2="56.5"/><text fill="#000000" font-family="sans-serif" font-size="11" lengthAdjust="spacingAndGlyphs" textLength="28" x="173" y="70.7104">int id</text><text fill="#000000" font-family="sans-serif" font-size="11" lengthAdjust="spacingAndGlyphs" textLength="52" x="173" y="83.5151">str name</text><text fill="#000000" font-family="sans-serif" font-size="11" lengthAdjust="spacingAndGlyphs" textLength="57" x="173" y="96.3198">float price</text><line style="stroke: #A80036; stroke-width: 1.5;" x1="168" x2="247" y1="102.9141" y2="102.9141"/><path d="M82.5,66 C98.43,66 98.12,52.14 113.5,48 C122.94,45.46 126.09,45.35 135.5,48 C149.23,51.87 150.28,63.72 161.46,66.44 " fill="none" style="stroke: #A80036; stroke-width: 1.0;"/><polygon fill="#A80036" points="166.5,67,157.9889,62.044,161.5297,66.4557,157.118,69.9965,166.5,67" style="stroke: #A80036; stroke-width: 1.0;"/><text fill="#000000" font-family="sans-serif" font-size="13" lengthAdjust="spacingAndGlyphs" textLength="20" x="114.5" y="43.0669">n:n</text><!--
@startuml
 class Order {
   int id
   products
   user
   delete()
   accept()
 }

 class Product {
   int id
   str name
   float price
 }

 Order::product -> Product::id : n:n
@enduml

PlantUML version 2017.10(Thu Apr 06 18:43:00 UTC 2017)
(GPL source distribution)
Java Runtime: OpenJDK Runtime Environment
JVM: OpenJDK 64-Bit Server VM
Java Version: 11.0.15+10
Operating System: Linux
OS Version: 5.13.0-1022-azure
Default Encoding: UTF-8
Language: en
Country: null
--></g></svg>