<?xml version="1.0" encoding="UTF-8" standalone="no"?><svg xmlns="http://www.w3.org/2000/svg" xmlns:xlink="http://www.w3.org/1999/xlink" contentScriptType="application/ecmascript" contentStyleType="text/css" height="336px" preserveAspectRatio="none" style="width:449px;height:336px;" version="1.1" viewBox="0 0 449 336" width="449px" zoomAndPan="magnify"><defs><filter height="300%" id="f91phot" width="300%" x="-1" y="-1"><feGaussianBlur result="blurOut" stdDeviation="2.0"/><feColorMatrix in="blurOut" result="blurOut2" type="matrix" values="0 0 0 0 0 0 0 0 0 0 0 0 0 0 0 0 0 0 .4 0"/><feOffset dx="4.0" dy="4.0" in="blurOut2" result="blurOut3"/><feBlend in="SourceGraphic" in2="blurOut3" mode="normal"/></filter></defs><g><!--class User--><rect fill="#FEFECE" filter="url(#f91phot)" height="137.6328" style="stroke: #A80036; stroke-width: 1.5;" width="64" x="175.5" y="190"/><ellipse cx="191.85" cy="206" fill="#ADD1B2" rx="11" ry="11" style="stroke: #A80036; stroke-width: 1.0;"/><path d="M194.8188,211.6406 Q194.2406,211.9375 193.6,212.0781 Q192.9594,212.2344 192.2563,212.2344 Q189.7563,212.2344 188.4281,210.5938 Q187.1156,208.9375 187.1156,205.8125 Q187.1156,202.6875 188.4281,201.0313 Q189.7563,199.375 192.2563,199.375 Q192.9594,199.375 193.6,199.5313 Q194.2563,199.6875 194.8188,199.9844 L194.8188,202.7031 Q194.1938,202.125 193.6,201.8594 Q193.0063,201.5781 192.3813,201.5781 Q191.0375,201.5781 190.35,202.6563 Q189.6625,203.7188 189.6625,205.8125 Q189.6625,207.9063 190.35,208.9844 Q191.0375,210.0469 192.3813,210.0469 Q193.0063,210.0469 193.6,209.7813 Q194.1938,209.5 194.8188,208.9219 L194.8188,211.6406 Z "/><text fill="#000000" font-family="sans-serif" font-size="12" lengthAdjust="spacingAndGlyphs" textLength="29" x="206.15" y="210.1543">User</text><line style="stroke: #A80036; stroke-width: 1.5;" x1="176.5" x2="238.5" y1="222" y2="222"/><text fill="#000000" font-family="sans-serif" font-size="11" lengthAdjust="spacingAndGlyphs" textLength="28" x="181.5" y="236.2104">int id</text><text fill="#000000" font-family="sans-serif" font-size="11" lengthAdjust="spacingAndGlyphs" textLength="52" x="181.5" y="249.0151">str name</text><text fill="#000000" font-family="sans-serif" font-size="11" lengthAdjust="spacingAndGlyphs" textLength="51" x="181.5" y="261.8198">str email</text><text fill="#000000" font-family="sans-serif" font-size="11" lengthAdjust="spacingAndGlyphs" textLength="47" x="181.5" y="274.6245">address</text><text fill="#000000" font-family="sans-serif" font-size="11" lengthAdjust="spacingAndGlyphs" textLength="39" x="181.5" y="287.4292">int age</text><line style="stroke: #A80036; stroke-width: 1.5;" x1="176.5" x2="238.5" y1="294.0234" y2="294.0234"/><text fill="#000000" font-family="sans-serif" font-size="11" lengthAdjust="spacingAndGlyphs" textLength="52" x="181.5" y="308.2339">activate()</text><text fill="#000000" font-family="sans-serif" font-size="11" lengthAdjust="spacingAndGlyphs" textLength="39" x="181.5" y="321.0386">notify()</text><!--class Address--><rect fill="#FEFECE" filter="url(#f91phot)" height="99.2188" style="stroke: #A80036; stroke-width: 1.5;" width="83" x="325" y="208.5"/><ellipse cx="340" cy="224.5" fill="#ADD1B2" rx="11" ry="11" style="stroke: #A80036; stroke-width: 1.0;"/><path d="M342.9688,230.1406 Q342.3906,230.4375 341.75,230.5781 Q341.1094,230.7344 340.4063,230.7344 Q337.9063,230.7344 336.5781,229.0938 Q335.2656,227.4375 335.2656,224.3125 Q335.2656,221.1875 336.5781,219.5313 Q337.9063,217.875 340.4063,217.875 Q341.1094,217.875 341.75,218.0313 Q342.4063,218.1875 342.9688,218.4844 L342.9688,221.2031 Q342.3438,220.625 341.75,220.3594 Q341.1563,220.0781 340.5313,220.0781 Q339.1875,220.0781 338.5,221.1563 Q337.8125,222.2188 337.8125,224.3125 Q337.8125,226.4063 338.5,227.4844 Q339.1875,228.5469 340.5313,228.5469 Q341.1563,228.5469 341.75,228.2813 Q342.3438,228 342.9688,227.4219 L342.9688,230.1406 Z "/><text fill="#000000" font-family="sans-serif" font-size="12" lengthAdjust="spacingAndGlyphs" textLength="51" x="354" y="228.6543">Address</text><line style="stroke: #A80036; stroke-width: 1.5;" x1="326" x2="407" y1="240.5" y2="240.5"/><text fill="#000000" font-family="sans-serif" font-size="11" lengthAdjust="spacingAndGlyphs" textLength="28" x="331" y="254.7104">int id</text><text fill="#000000" font-family="sans-serif" font-size="11" lengthAdjust="spacingAndGlyphs" textLength="54" x="331" y="267.5151">str street</text><text fill="#000000" font-family="sans-serif" font-size="11" lengthAdjust="spacingAndGlyphs" textLength="39" x="331" y="280.3198">str city</text><text fill="#000000" font-family="sans-serif" font-size="11" lengthAdjust="spacingAndGlyphs" textLength="62" x="331" y="293.1245">str country</text><line style="stroke: #A80036; stroke-width: 1.5;" x1="326" x2="407" y1="299.7188" y2="299.7188"/><!--class Order--><rect fill="#FEFECE" filter="url(#f91phot)" height="112.0234" style="stroke: #A80036; stroke-width: 1.5;" width="67" x="14" y="12"/><ellipse cx="29" cy="28" fill="#ADD1B2" rx="11" ry="11" style="stroke: #A80036; stroke-width: 1.0;"/><path d="M31.9688,33.6406 Q31.3906,33.9375 30.75,34.0781 Q30.1094,34.2344 29.4063,34.2344 Q26.9063,34.2344 25.5781,32.5938 Q24.2656,30.9375 24.2656,27.8125 Q24.2656,24.6875 25.5781,23.0313 Q26.9063,21.375 29.4063,21.375 Q30.1094,21.375 30.75,21.5313 Q31.4063,21.6875 31.9688,21.9844 L31.9688,24.7031 Q31.3438,24.125 30.75,23.8594 Q30.1563,23.5781 29.5313,23.5781 Q28.1875,23.5781 27.5,24.6563 Q26.8125,25.7188 26.8125,27.8125 Q26.8125,29.9063 27.5,30.9844 Q28.1875,32.0469 29.5313,32.0469 Q30.1563,32.0469 30.75,31.7813 Q31.3438,31.5 31.9688,30.9219 L31.9688,33.6406 Z "/><text fill="#000000" font-family="sans-serif" font-size="12" lengthAdjust="spacingAndGlyphs" textLength="35" x="43" y="32.1543">Order</text><line style="stroke: #A80036; stroke-width: 1.5;" x1="15" x2="80" y1="44" y2="44"/><text fill="#000000" font-family="sans-serif" font-size="11" lengthAdjust="spacingAndGlyphs" textLength="28" x="20" y="58.2104">int id</text><text fill="#000000" font-family="sans-serif" font-size="11" lengthAdjust="spacingAndGlyphs" textLength="50" x="20" y="71.0151">products</text><text fill="#000000" font-family="sans-serif" font-size="11" lengthAdjust="spacingAndGlyphs" textLength="26" x="20" y="83.8198">user</text><line style="stroke: #A80036; stroke-width: 1.5;" x1="15" x2="80" y1="90.4141" y2="90.4141"/><text fill="#000000" font-family="sans-serif" font-size="11" lengthAdjust="spacingAndGlyphs" textLength="43" x="20" y="104.6245">delete()</text><text fill="#000000" font-family="sans-serif" font-size="11" lengthAdjust="spacingAndGlyphs" textLength="45" x="20" y="117.4292">accept()</text><!--class Product--><rect fill="#FEFECE" filter="url(#f91phot)" height="86.4141" style="stroke: #A80036; stroke-width: 1.5;" width="81" x="167" y="24"/><ellipse cx="182" cy="40" fill="#ADD1B2" rx="11" ry="11" style="stroke: #A80036; stroke-width: 1.0;"/><path d="M184.9688,45.6406 Q184.3906,45.9375 183.75,46.0781 Q183.1094,46.2344 182.4063,46.2344 Q179.9063,46.2344 178.5781,44.5938 Q177.2656,42.9375 177.2656,39.8125 Q177.2656,36.6875 178.5781,35.0313 Q179.9063,33.375 182.4063,33.375 Q183.1094,33.375 183.75,33.5313 Q184.4063,33.6875 184.9688,33.9844 L184.9688,36.7031 Q184.3438,36.125 183.75,35.8594 Q183.1563,35.5781 182.5313,35.5781 Q181.1875,35.5781 180.5,36.6563 Q179.8125,37.7188 179.8125,39.8125 Q179.8125,41.9063 180.5,42.9844 Q181.1875,44.0469 182.5313,44.0469 Q183.1563,44.0469 183.75,43.7813 Q184.3438,43.5 184.9688,42.9219 L184.9688,45.6406 Z "/><text fill="#000000" font-family="sans-serif" font-size="12" lengthAdjust="spacingAndGlyphs" textLength="49" x="196" y="44.1543">Product</text><line style="stroke: #A80036; stroke-width: 1.5;" x1="168" x2="247" y1="56" y2="56"/><text fill="#000000" font-family="sans-serif" font-size="11" lengthAdjust="spacingAndGlyphs" textLength="28" x="173" y="70.2104">int id</text><text fill="#000000" font-family="sans-serif" font-size="11" lengthAdjust="spacingAndGlyphs" textLength="52" x="173" y="83.0151">str name</text><text fill="#000000" font-family="sans-serif" font-size="11" lengthAdjust="spacingAndGlyphs" textLength="57" x="173" y="95.8198">float price</text><line style="stroke: #A80036; stroke-width: 1.5;" x1="168" x2="247" y1="102.4141" y2="102.4141"/><!--entity REQ_001--><polygon fill="#DCB239" filter="url(#f91phot)" points="291,53.5,301,43.5,444,43.5,444,79.7969,434,89.7969,291,89.7969,291,53.5" style="stroke: #000000; stroke-width: 1.5;"/><line style="stroke: #000000; stroke-width: 1.5;" x1="434" x2="443" y1="53.5" y2="44.5"/><line style="stroke: #000000; stroke-width: 1.5;" x1="291" x2="434" y1="53.5" y2="53.5"/><line style="stroke: #000000; stroke-width: 1.5;" x1="434" x2="434" y1="53.5" y2="89.7969"/><text fill="#000000" font-family="sans-serif" font-size="14" lengthAdjust="spacingAndGlyphs" textLength="113" x="306" y="76.4951">My Requirement</text><path d="M240.5,269.5 C276.98,269.5 285.46,252.24 319.31,250.62 " fill="none" style="stroke: #A80036; stroke-width: 1.0;"/><polygon fill="#A80036" points="324.5,250.5,315.4109,246.7067,319.5013,250.6143,315.5938,254.7046,324.5,250.5" style="stroke: #A80036; stroke-width: 1.0;"/><path d="M82.5,66.5 C98.28,66.5 97.34,51.9 112.5,47.5 C121.89,44.78 125.07,44.91 134.5,47.5 C148.58,51.37 149.85,63.21 161.33,65.94 " fill="none" style="stroke: #A80036; stroke-width: 1.0;"/><polygon fill="#A80036" points="166.5,66.5,157.9874,61.5467,161.5295,65.9572,157.119,69.4994,166.5,66.5" style="stroke: #A80036; stroke-width: 1.0;"/><text fill="#000000" font-family="sans-serif" font-size="13" lengthAdjust="spacingAndGlyphs" textLength="20" x="113.5" y="42.5669">n:n</text><path d="M82.5,78.5 C160.36,78.5 97.85,225.37 169.13,232.25 " fill="none" style="stroke: #A80036; stroke-width: 1.0;"/><polygon fill="#A80036" points="174.5,232.5,165.7047,228.0681,169.5059,232.2574,165.3165,236.0587,174.5,232.5" style="stroke: #A80036; stroke-width: 1.0;"/><path d="M348.83,89.55 C325.05,117.64 283.2,167.08 251.19,204.89 " fill="none" style="stroke: #A80036; stroke-width: 1.0; stroke-dasharray: 7.0,7.0;"/><polygon fill="#A80036" points="247.73,208.98,256.5977,204.6948,250.9604,205.1636,250.4915,199.5262,247.73,208.98" style="stroke: #A80036; stroke-width: 1.0;"/><!--
@startuml
    allow_mixing

    '' code from COMP_USER
    class User {
      int id
      str name
      str email
      address
      int age
      activate()
      notify()
    }

    class Address {
      int id
      str street
      str city
      str country
    }

    User::address -> Address::id

    '' code from COMP_ORDER
    class Order {
      int id
      products
      user
      delete()
      accept()
    }

    class Product {
      int id
      str name
      float price
    }

    Order::product -> Product::id : n:n

    node "My Requirement" as REQ_001 #DCB239

    '' code from need_arch
    Order::user - -> User::id
    REQ_001 ..> User

   @enduml

PlantUML version 2017.10(Thu Apr 06 18:43:00 UTC 2017)
(GPL source distribution)
Java Runtime: OpenJDK Runtime Environment
JVM: OpenJDK 64-Bit Server VM
Java Version: 11.0.15+10
Operating System: Linux
OS Version: 5.13.0-1022-azure
Default Encoding: UTF-8
Language: en
Country: null
--></g></svg>