<?xml version="1.0" encoding="UTF-8" standalone="no"?><svg xmlns="http://www.w3.org/2000/svg" xmlns:xlink="http://www.w3.org/1999/xlink" contentScriptType="application/ecmascript" contentStyleType="text/css" height="158px" preserveAspectRatio="none" style="width:221px;height:158px;" version="1.1" viewBox="0 0 221 158" width="221px" zoomAndPan="magnify"><defs><filter height="300%" id="f1cwp7k" width="300%" x="-1" y="-1"><feGaussianBlur result="blurOut" stdDeviation="2.0"/><feColorMatrix in="blurOut" result="blurOut2" type="matrix" values="0 0 0 0 0 0 0 0 0 0 0 0 0 0 0 0 0 0 .4 0"/><feOffset dx="4.0" dy="4.0" in="blurOut2" result="blurOut3"/><feBlend in="SourceGraphic" in2="blurOut3" mode="normal"/></filter></defs><g><!--class User--><rect fill="#FEFECE" filter="url(#f1cwp7k)" height="137.6328" style="stroke: #A80036; stroke-width: 1.5;" width="64" x="14" y="12"/><ellipse cx="30.35" cy="28" fill="#ADD1B2" rx="11" ry="11" style="stroke: #A80036; stroke-width: 1.0;"/><path d="M33.3188,33.6406 Q32.7406,33.9375 32.1,34.0781 Q31.4594,34.2344 30.7563,34.2344 Q28.2563,34.2344 26.9281,32.5938 Q25.6156,30.9375 25.6156,27.8125 Q25.6156,24.6875 26.9281,23.0313 Q28.2563,21.375 30.7563,21.375 Q31.4594,21.375 32.1,21.5313 Q32.7563,21.6875 33.3188,21.9844 L33.3188,24.7031 Q32.6938,24.125 32.1,23.8594 Q31.5063,23.5781 30.8813,23.5781 Q29.5375,23.5781 28.85,24.6563 Q28.1625,25.7188 28.1625,27.8125 Q28.1625,29.9063 28.85,30.9844 Q29.5375,32.0469 30.8813,32.0469 Q31.5063,32.0469 32.1,31.7813 Q32.6938,31.5 33.3188,30.9219 L33.3188,33.6406 Z "/><text fill="#000000" font-family="sans-serif" font-size="12" lengthAdjust="spacingAndGlyphs" textLength="29" x="44.65" y="32.1543">User</text><line style="stroke: #A80036; stroke-width: 1.5;" x1="15" x2="77" y1="44" y2="44"/><text fill="#000000" font-family="sans-serif" font-size="11" lengthAdjust="spacingAndGlyphs" textLength="28" x="20" y="58.2104">int id</text><text fill="#000000" font-family="sans-serif" font-size="11" lengthAdjust="spacingAndGlyphs" textLength="52" x="20" y="71.0151">str name</text><text fill="#000000" font-family="sans-serif" font-size="11" lengthAdjust="spacingAndGlyphs" textLength="51" x="20" y="83.8198">str email</text><text fill="#000000" font-family="sans-serif" font-size="11" lengthAdjust="spacingAndGlyphs" textLength="47" x="20" y="96.6245">address</text><text fill="#000000" font-family="sans-serif" font-size="11" lengthAdjust="spacingAndGlyphs" textLength="39" x="20" y="109.4292">int age</text><line style="stroke: #A80036; stroke-width: 1.5;" x1="15" x2="77" y1="116.0234" y2="116.0234"/><text fill="#000000" font-family="sans-serif" font-size="11" lengthAdjust="spacingAndGlyphs" textLength="52" x="20" y="130.2339">activate()</text><text fill="#000000" font-family="sans-serif" font-size="11" lengthAdjust="spacingAndGlyphs" textLength="39" x="20" y="143.0386">notify()</text><!--class Address--><rect fill="#FEFECE" filter="url(#f1cwp7k)" height="99.2188" style="stroke: #A80036; stroke-width: 1.5;" width="83" x="129.5" y="31"/><ellipse cx="144.5" cy="47" fill="#ADD1B2" rx="11" ry="11" style="stroke: #A80036; stroke-width: 1.0;"/><path d="M147.4688,52.6406 Q146.8906,52.9375 146.25,53.0781 Q145.6094,53.2344 144.9063,53.2344 Q142.4063,53.2344 141.0781,51.5938 Q139.7656,49.9375 139.7656,46.8125 Q139.7656,43.6875 141.0781,42.0313 Q142.4063,40.375 144.9063,40.375 Q145.6094,40.375 146.25,40.5313 Q146.9063,40.6875 147.4688,40.9844 L147.4688,43.7031 Q146.8438,43.125 146.25,42.8594 Q145.6563,42.5781 145.0313,42.5781 Q143.6875,42.5781 143,43.6563 Q142.3125,44.7188 142.3125,46.8125 Q142.3125,48.9063 143,49.9844 Q143.6875,51.0469 145.0313,51.0469 Q145.6563,51.0469 146.25,50.7813 Q146.8438,50.5 147.4688,49.9219 L147.4688,52.6406 Z "/><text fill="#000000" font-family="sans-serif" font-size="12" lengthAdjust="spacingAndGlyphs" textLength="51" x="158.5" y="51.1543">Address</text><line style="stroke: #A80036; stroke-width: 1.5;" x1="130.5" x2="211.5" y1="63" y2="63"/><text fill="#000000" font-family="sans-serif" font-size="11" lengthAdjust="spacingAndGlyphs" textLength="28" x="135.5" y="77.2104">int id</text><text fill="#000000" font-family="sans-serif" font-size="11" lengthAdjust="spacingAndGlyphs" textLength="54" x="135.5" y="90.0151">str street</text><text fill="#000000" font-family="sans-serif" font-size="11" lengthAdjust="spacingAndGlyphs" textLength="39" x="135.5" y="102.8198">str city</text><text fill="#000000" font-family="sans-serif" font-size="11" lengthAdjust="spacingAndGlyphs" textLength="62" x="135.5" y="115.6245">str country</text><line style="stroke: #A80036; stroke-width: 1.5;" x1="130.5" x2="211.5" y1="122.2188" y2="122.2188"/><path d="M79,92 C100.92,92 104.71,75.85 123.8,73.33 " fill="none" style="stroke: #A80036; stroke-width: 1.0;"/><polygon fill="#A80036" points="129,73,119.7662,69.5741,124.0099,73.3146,120.2695,77.5583,129,73" style="stroke: #A80036; stroke-width: 1.0;"/><!--
@startuml
 class User {
   int id
   str name
   str email
   address
   int age
   activate()
   notify()
 }

 class Address {
   int id
   str street
   str city
   str country
 }

 User::address -> Address::id
@enduml

PlantUML version 2017.10(Thu Apr 06 18:43:00 UTC 2017)
(GPL source distribution)
Java Runtime: OpenJDK Runtime Environment
JVM: OpenJDK 64-Bit Server VM
Java Version: 11.0.15+10
Operating System: Linux
OS Version: 5.13.0-1022-azure
Default Encoding: UTF-8
Language: en
Country: null
--></g></svg>