<?xml version="1.0" encoding="UTF-8" standalone="no"?><svg xmlns="http://www.w3.org/2000/svg" xmlns:xlink="http://www.w3.org/1999/xlink" contentStyleType="text/css" height="372px" preserveAspectRatio="none" style="width:422px;height:372px;background:#FFFFFF;" version="1.1" viewBox="0 0 422 372" width="422px" zoomAndPan="magnify"><defs/><g><!--MD5=[3fd616f346a44cd59a91eb10b19e157c]
class User--><g id="elem_User"><rect codeLine="1" fill="#F1F1F1" height="162.0781" id="User" rx="2.5" ry="2.5" style="stroke:#181818;stroke-width:0.5;" width="75" x="133" y="203"/><ellipse cx="152.95" cy="219" fill="#ADD1B2" rx="11" ry="11" style="stroke:#181818;stroke-width:1.0;"/><path d="M155.9188,224.6406 Q155.3406,224.9375 154.7,225.0781 Q154.0594,225.2344 153.3563,225.2344 Q150.8563,225.2344 149.5281,223.5938 Q148.2156,221.9375 148.2156,218.8125 Q148.2156,215.6875 149.5281,214.0313 Q150.8563,212.375 153.3563,212.375 Q154.0594,212.375 154.7,212.5313 Q155.3563,212.6875 155.9188,212.9844 L155.9188,215.7031 Q155.2938,215.125 154.7,214.8594 Q154.1063,214.5781 153.4813,214.5781 Q152.1375,214.5781 151.45,215.6563 Q150.7625,216.7188 150.7625,218.8125 Q150.7625,220.9063 151.45,221.9844 Q152.1375,223.0469 153.4813,223.0469 Q154.1063,223.0469 154.7,222.7813 Q155.2938,222.5 155.9188,221.9219 L155.9188,224.6406 Z " fill="#000000"/><text fill="#000000" font-family="sans-serif" font-size="14" lengthAdjust="spacing" textLength="32" x="168.05" y="223.8467">User</text><line style="stroke:#181818;stroke-width:0.5;" x1="134" x2="207" y1="235" y2="235"/><text fill="#000000" font-family="sans-serif" font-size="14" lengthAdjust="spacing" textLength="33" x="139" y="251.9951">int id</text><text fill="#000000" font-family="sans-serif" font-size="14" lengthAdjust="spacing" textLength="61" x="139" y="268.292">str name</text><text fill="#000000" font-family="sans-serif" font-size="14" lengthAdjust="spacing" textLength="58" x="139" y="284.5889">str email</text><text fill="#000000" font-family="sans-serif" font-size="14" lengthAdjust="spacing" textLength="56" x="139" y="300.8857">address</text><text fill="#000000" font-family="sans-serif" font-size="14" lengthAdjust="spacing" textLength="47" x="139" y="317.1826">int age</text><line style="stroke:#181818;stroke-width:0.5;" x1="134" x2="207" y1="324.4844" y2="324.4844"/><text fill="#000000" font-family="sans-serif" font-size="14" lengthAdjust="spacing" textLength="63" x="139" y="341.4795">activate()</text><text fill="#000000" font-family="sans-serif" font-size="14" lengthAdjust="spacing" textLength="47" x="139" y="357.7764">notify()</text></g><!--MD5=[0f39e4cb6f03951afbf6d14bd2505654]
class Address--><g id="elem_Address"><rect codeLine="11" fill="#F1F1F1" height="113.1875" id="Address" rx="2.5" ry="2.5" style="stroke:#181818;stroke-width:0.5;" width="89" x="251" y="227"/><ellipse cx="266" cy="243" fill="#ADD1B2" rx="11" ry="11" style="stroke:#181818;stroke-width:1.0;"/><path d="M268.9688,248.6406 Q268.3906,248.9375 267.75,249.0781 Q267.1094,249.2344 266.4063,249.2344 Q263.9063,249.2344 262.5781,247.5938 Q261.2656,245.9375 261.2656,242.8125 Q261.2656,239.6875 262.5781,238.0313 Q263.9063,236.375 266.4063,236.375 Q267.1094,236.375 267.75,236.5313 Q268.4063,236.6875 268.9688,236.9844 L268.9688,239.7031 Q268.3438,239.125 267.75,238.8594 Q267.1563,238.5781 266.5313,238.5781 Q265.1875,238.5781 264.5,239.6563 Q263.8125,240.7188 263.8125,242.8125 Q263.8125,244.9063 264.5,245.9844 Q265.1875,247.0469 266.5313,247.0469 Q267.1563,247.0469 267.75,246.7813 Q268.3438,246.5 268.9688,245.9219 L268.9688,248.6406 Z " fill="#000000"/><text fill="#000000" font-family="sans-serif" font-size="14" lengthAdjust="spacing" textLength="57" x="280" y="247.8467">Address</text><line style="stroke:#181818;stroke-width:0.5;" x1="252" x2="339" y1="259" y2="259"/><text fill="#000000" font-family="sans-serif" font-size="14" lengthAdjust="spacing" textLength="33" x="257" y="275.9951">int id</text><text fill="#000000" font-family="sans-serif" font-size="14" lengthAdjust="spacing" textLength="63" x="257" y="292.292">str street</text><text fill="#000000" font-family="sans-serif" font-size="14" lengthAdjust="spacing" textLength="45" x="257" y="308.5889">str city</text><text fill="#000000" font-family="sans-serif" font-size="14" lengthAdjust="spacing" textLength="74" x="257" y="324.8857">str country</text><line style="stroke:#181818;stroke-width:0.5;" x1="252" x2="339" y1="332.1875" y2="332.1875"/></g><!--MD5=[cf4d6237fcae255cd2e1656cf84a30e2]
class Order--><g id="elem_Order"><rect codeLine="1" fill="#F1F1F1" height="129.4844" id="Order" rx="2.5" ry="2.5" style="stroke:#181818;stroke-width:0.5;" width="74" x="212.5" y="7"/><ellipse cx="228.85" cy="23" fill="#ADD1B2" rx="11" ry="11" style="stroke:#181818;stroke-width:1.0;"/><path d="M231.8188,28.6406 Q231.2406,28.9375 230.6,29.0781 Q229.9594,29.2344 229.2563,29.2344 Q226.7563,29.2344 225.4281,27.5938 Q224.1156,25.9375 224.1156,22.8125 Q224.1156,19.6875 225.4281,18.0313 Q226.7563,16.375 229.2563,16.375 Q229.9594,16.375 230.6,16.5313 Q231.2563,16.6875 231.8188,16.9844 L231.8188,19.7031 Q231.1938,19.125 230.6,18.8594 Q230.0063,18.5781 229.3813,18.5781 Q228.0375,18.5781 227.35,19.6563 Q226.6625,20.7188 226.6625,22.8125 Q226.6625,24.9063 227.35,25.9844 Q228.0375,27.0469 229.3813,27.0469 Q230.0063,27.0469 230.6,26.7813 Q231.1938,26.5 231.8188,25.9219 L231.8188,28.6406 Z " fill="#000000"/><text fill="#000000" font-family="sans-serif" font-size="14" lengthAdjust="spacing" textLength="39" x="243.15" y="27.8467">Order</text><line style="stroke:#181818;stroke-width:0.5;" x1="213.5" x2="285.5" y1="39" y2="39"/><text fill="#000000" font-family="sans-serif" font-size="14" lengthAdjust="spacing" textLength="33" x="218.5" y="55.9951">int id</text><text fill="#000000" font-family="sans-serif" font-size="14" lengthAdjust="spacing" textLength="62" x="218.5" y="72.292">products</text><text fill="#000000" font-family="sans-serif" font-size="14" lengthAdjust="spacing" textLength="31" x="218.5" y="88.5889">user</text><line style="stroke:#181818;stroke-width:0.5;" x1="213.5" x2="285.5" y1="95.8906" y2="95.8906"/><text fill="#000000" font-family="sans-serif" font-size="14" lengthAdjust="spacing" textLength="54" x="218.5" y="112.8857">delete()</text><text fill="#000000" font-family="sans-serif" font-size="14" lengthAdjust="spacing" textLength="57" x="218.5" y="129.1826">accept()</text></g><!--MD5=[72136138052d025cffdce3c22fbd185f]
class Product--><g id="elem_Product"><rect codeLine="9" fill="#F1F1F1" height="96.8906" id="Product" rx="2.5" ry="2.5" style="stroke:#181818;stroke-width:0.5;" width="86" x="329.5" y="22.5"/><ellipse cx="344.5" cy="38.5" fill="#ADD1B2" rx="11" ry="11" style="stroke:#181818;stroke-width:1.0;"/><path d="M347.4688,44.1406 Q346.8906,44.4375 346.25,44.5781 Q345.6094,44.7344 344.9063,44.7344 Q342.4063,44.7344 341.0781,43.0938 Q339.7656,41.4375 339.7656,38.3125 Q339.7656,35.1875 341.0781,33.5313 Q342.4063,31.875 344.9063,31.875 Q345.6094,31.875 346.25,32.0313 Q346.9063,32.1875 347.4688,32.4844 L347.4688,35.2031 Q346.8438,34.625 346.25,34.3594 Q345.6563,34.0781 345.0313,34.0781 Q343.6875,34.0781 343,35.1563 Q342.3125,36.2188 342.3125,38.3125 Q342.3125,40.4063 343,41.4844 Q343.6875,42.5469 345.0313,42.5469 Q345.6563,42.5469 346.25,42.2813 Q346.8438,42 347.4688,41.4219 L347.4688,44.1406 Z " fill="#000000"/><text fill="#000000" font-family="sans-serif" font-size="14" lengthAdjust="spacing" textLength="54" x="358.5" y="43.3467">Product</text><line style="stroke:#181818;stroke-width:0.5;" x1="330.5" x2="414.5" y1="54.5" y2="54.5"/><text fill="#000000" font-family="sans-serif" font-size="14" lengthAdjust="spacing" textLength="33" x="335.5" y="71.4951">int id</text><text fill="#000000" font-family="sans-serif" font-size="14" lengthAdjust="spacing" textLength="61" x="335.5" y="87.792">str name</text><text fill="#000000" font-family="sans-serif" font-size="14" lengthAdjust="spacing" textLength="67" x="335.5" y="104.0889">float price</text><line style="stroke:#181818;stroke-width:0.5;" x1="330.5" x2="414.5" y1="111.3906" y2="111.3906"/></g><!--MD5=[7f32460df2b23b452a92cdd5fc1d2221]
entity REQ_001--><g id="elem_REQ_001"><polygon fill="#DCB239" points="16,58,26,48,169,48,169,84.2969,159,94.2969,16,94.2969,16,58" style="stroke:#181818;stroke-width:0.5;"/><line style="stroke:#181818;stroke-width:0.5;" x1="159" x2="169" y1="58" y2="48"/><line style="stroke:#181818;stroke-width:0.5;" x1="16" x2="159" y1="58" y2="58"/><line style="stroke:#181818;stroke-width:0.5;" x1="159" x2="159" y1="58" y2="94.2969"/><text fill="#000000" font-family="sans-serif" font-size="14" lengthAdjust="spacing" textLength="113" x="31" y="80.9951">My Requirement</text></g><!--MD5=[c5838101b3c45438f8850ad1fc969b69]
reverse link User to Address--><g id="link_User_Address"><path codeLine="18" d="M229.53,283.5 C236.58,283.5 243.64,283.5 250.7,283.5 " fill="none" id="User-backto-Address" style="stroke:#181818;stroke-width:1.0;"/><polygon fill="none" points="216.4,283.5,222.4,287.5,228.4,283.5,222.4,279.5,216.4,283.5" style="stroke:#181818;stroke-width:1.0;"/><text fill="#000000" font-family="sans-serif" font-size="13" lengthAdjust="spacing" textLength="23" x="215.8659" y="279.5554">1..*</text></g><!--MD5=[e9f19b7cb7fceb8a230391eb3c9865e3]
reverse link Order to Product--><g id="link_Order_Product"><path codeLine="15" d="M307.93,71 C315.06,71 322.19,71 329.33,71 " fill="none" id="Order-backto-Product" style="stroke:#181818;stroke-width:1.0;"/><polygon fill="none" points="294.66,71,300.66,75,306.66,71,300.66,67,294.66,71" style="stroke:#181818;stroke-width:1.0;"/><text fill="#000000" font-family="sans-serif" font-size="13" lengthAdjust="spacing" textLength="23" x="298.642" y="67.0292">1..*</text></g><!--MD5=[e24aee972611f650b83da051c892251f]
reverse link Order to User--><g id="link_Order_User"><path codeLine="12" d="M198.63,85.58 C158.6,106.51 277.19,247.5 209.5,247.5 " fill="none" id="Order-backto-User" style="stroke:#181818;stroke-width:1.0;"/><polygon fill="none" points="211.5,83,204.8303,80.2587,199.7346,85.361,206.4043,88.1023,211.5,83" style="stroke:#181818;stroke-width:1.0;"/></g><!--MD5=[42d254975bfd6dfdc2af5ea78af06d1f]
link REQ_001 to User--><g id="link_REQ_001_User"><path codeLine="13" d="M100.7,94.13 C109.5,117.87 124.03,157.1 137.57,193.63 " fill="none" id="REQ_001-to-User" style="stroke:#181818;stroke-width:1.0;stroke-dasharray:7.0,7.0;"/><polygon fill="#181818" points="139.39,198.53,140.0279,188.7018,137.6595,193.839,132.5223,191.4706,139.39,198.53" style="stroke:#181818;stroke-width:1.0;"/></g><!--MD5=[5dc34975d606bd1d3d7404f5ac78ba13]
@startuml
    allow_mixing

    '' code from COMP_USER
    !include plantuml/comp_a.puml

    '' code from COMP_ORDER
    !include plantuml/comp_b.puml

    node "My Requirement" as REQ_001 #DCB239

    '' code from need_arch
    Order::user o- - User::id
    REQ_001 ..> User

   @enduml

@startuml
    allow_mixing

    class User {
     int id
     str name
     str email
     address
     int age
     activate()
     notify()
    }

    class Address {
     int id
     str street
     str city
     str country
    }

    User  o- "1..* "Address

    class Order {
     int id
     products
     user
     delete()
     accept()
    }

    class Product {
     int id
     str name
     float price
    }

    Order o- "1..*" Product

    node "My Requirement" as REQ_001 #DCB239

    Order::user o- - User::id
    REQ_001 ..> User

   @enduml

PlantUML version 1.2022.5(Sat Apr 30 10:55:52 UTC 2022)
(GPL source distribution)
Java Runtime: OpenJDK Runtime Environment
JVM: OpenJDK 64-Bit Server VM
Default Encoding: UTF-8
Language: en
Country: null
--></g></svg>